<?xml version="1.0" encoding="UTF-8"?>
<svg version="1.1" xmlns="http://www.w3.org/2000/svg" width="847" height="633">
<path d="M0 0 C2.1640625 0.00390625 2.1640625 0.00390625 5 1 C7.13413402 3.42928021 8.72201316 6.16653127 10.375 8.9375 C11.34358368 10.50091068 12.31363068 12.06341575 13.28515625 13.625 C13.98342529 14.76001953 13.98342529 14.76001953 14.69580078 15.91796875 C16.30918074 18.49357794 18.03766291 20.97091126 19.8125 23.4375 C23.14852032 28.14717574 26.09607054 33.01460477 29 38 C29.85771959 39.44291842 30.71582721 40.88560622 31.57421875 42.328125 C43.8566345 63.0805864 55.71848567 86.45188097 57 111 C57.03561035 111.67514648 57.0712207 112.35029297 57.10791016 113.04589844 C58.27048544 138.80581786 50.34854861 163.54474587 38.06103516 186.04541016 C36.91482532 188.15690485 35.80464785 190.284854 34.69921875 192.41796875 C29.73109379 201.98416656 24.5903467 211.45366831 19.41357422 220.90820312 C16.1940808 226.7930063 13.01090437 232.69521924 9.875 238.625 C9.50882568 239.3173877 9.14265137 240.00977539 8.76538086 240.72314453 C7.14370349 243.79933996 5.53619187 246.88010517 4 250 C3.34 250 2.68 250 2 250 C1.59249512 251.30855957 1.59249512 251.30855957 1.17675781 252.64355469 C0.05512844 255.84275813 -1.2638619 258.69961787 -2.828125 261.703125 C-3.38113281 262.76660156 -3.93414062 263.83007812 -4.50390625 264.92578125 C-5.08011719 266.02277344 -5.65632812 267.11976563 -6.25 268.25 C-6.81074219 269.33152344 -7.37148438 270.41304688 -7.94921875 271.52734375 C-10.50650373 276.42339282 -13.10725226 281.24594024 -16.01171875 285.9453125 C-19.67052202 291.94144964 -22.5852024 298.27062633 -25.5625 304.625 C-28.70613739 311.33142644 -31.79485271 317.86616337 -35.8449707 324.07226562 C-38.09397938 327.82584257 -39.65543683 331.89730801 -41.3125 335.9375 C-44.07443194 342.54350071 -46.93416434 349.05980998 -50.0625 355.5 C-54.17951204 364.09497038 -57.58287785 372.90592193 -60.84912109 381.85449219 C-61.89698381 384.7184428 -62.96007951 387.57640035 -64.02549744 390.43385315 C-83.56073004 442.70481591 -83.56073004 442.70481591 -78.9296875 496.6484375 C-76.57581488 501.69668003 -74.08926017 505.26124784 -70 509 C-70 509.66 -70 510.32 -70 511 C-69.46503906 511.26167969 -68.93007812 511.52335937 -68.37890625 511.79296875 C-66.63865894 512.67595138 -64.91980631 513.60145427 -63.21484375 514.55078125 C-50.88153507 521.18048591 -37.68038314 524.60474636 -23.8359375 526.54296875 C-20.6673872 527.05360289 -17.56871426 527.75654749 -14.43994141 528.46704102 C-11.98765784 529.00269591 -9.53110459 529.47558257 -7.0625 529.9296875 C-6.22976563 530.08566406 -5.39703125 530.24164062 -4.5390625 530.40234375 C-2.84774293 530.71718939 -1.15500303 531.02449946 0.5390625 531.32421875 C6.45964214 532.45151178 11.6009314 534.32817831 17 537 C16.68481445 538.91381836 16.68481445 538.91381836 16 541 C13.68127685 542.08125399 11.61961081 542.84943296 9.1875 543.5625 C7.32158203 544.15224609 7.32158203 544.15224609 5.41796875 544.75390625 C-4.699899 547.67451352 -14.84491568 549.77661196 -25.23828125 551.453125 C-26.59282602 551.67562182 -27.94728574 551.89863691 -29.30166626 552.12213135 C-32.15835977 552.592755 -35.0154807 553.0606402 -37.87301636 553.52612305 C-45.39368569 554.75139078 -52.91181699 555.99206699 -60.4296875 557.234375 C-61.53949761 557.41753769 -61.53949761 557.41753769 -62.67172813 557.60440063 C-73.08854715 559.32524727 -83.47948104 561.15142497 -93.85458374 563.10836792 C-113.81398418 566.86115514 -133.90889864 569.74425615 -154 572.6875 C-154.80479168 572.80564056 -155.60958336 572.92378113 -156.43876266 573.04550171 C-175.16589345 575.79405241 -193.89744912 578.45740124 -212.68530273 580.76042175 C-213.88614502 580.91013931 -215.0869873 581.05985687 -216.32421875 581.21411133 C-217.37697998 581.34263992 -218.42974121 581.47116852 -219.5144043 581.60359192 C-221.9928138 581.8710871 -221.9928138 581.8710871 -224 583 C-226.88370333 583.07194869 -229.74239664 583.09291708 -232.625 583.0625 C-233.42679688 583.05798828 -234.22859375 583.05347656 -235.0546875 583.04882812 C-237.03649006 583.03703168 -239.01825433 583.01909605 -241 583 C-243.65252363 578.09559432 -244.62897796 575.49780061 -243 570 C-237.27771737 563.74125338 -228.96660909 561.79888116 -220.89453125 560.484375 C-220.11103302 560.35560471 -219.32753479 560.22683441 -218.52029419 560.09416199 C-209.51241579 558.67794013 -200.46361516 557.9757379 -191.375 557.3125 C-189.67442291 557.18237369 -187.97390155 557.05151705 -186.2734375 556.91992188 C-182.18288074 556.60491333 -178.09171257 556.29960507 -174 556 C-174.81044568 549.80543513 -174.81044568 549.80543513 -177 544 C-177.66 543.67 -178.32 543.34 -179 543 C-182.69097507 537.40525884 -184.77692119 531.05753201 -186.6875 524.6875 C-186.88964111 524.02556641 -187.09178223 523.36363281 -187.30004883 522.68164062 C-197.7031136 486.4202713 -188.9093707 444.71948829 -174.8515625 410.625 C-173.48259034 407.28348329 -172.25496078 403.91660271 -171.0859375 400.5 C-166.27365764 386.46706053 -160.59230083 373.03406375 -154.31640625 359.60717773 C-153.6949793 358.27473217 -153.07387927 356.94213408 -152.453125 355.609375 C-152.15418335 354.96927994 -151.8552417 354.32918488 -151.54724121 353.66969299 C-149.08748113 348.33852334 -147.00679271 342.91947793 -145.03417969 337.38769531 C-144 335 -144 335 -142 334 C-141.30273309 332.28891377 -141.30273309 332.28891377 -140.75 330.1875 C-139.56307964 326.40715866 -138.07394245 323.0169103 -136.25 319.5 C-133.7612264 314.66957243 -131.63876493 309.78896835 -129.625 304.75 C-127.39422879 299.19763994 -124.99205961 293.81818519 -122.25 288.5 C-118.70623626 281.62268094 -115.57929893 274.59632675 -112.5 267.5 C-109.42068489 260.40363596 -106.29333119 253.37756209 -102.75 246.5 C-99.75311179 240.67920738 -97.20622798 234.76944215 -94.77758789 228.69189453 C-92.10099185 222.07245226 -89.02837605 215.67107908 -85.91381836 209.24853516 C-82.19779257 201.53772885 -78.78634457 193.71157985 -75.48706055 185.81396484 C-73.38824719 180.86899666 -71.09721824 176.37602396 -68.1628418 171.87915039 C-66.29128152 168.85471213 -64.9338341 165.64925046 -63.5625 162.375 C-63.26883545 161.69131348 -62.9751709 161.00762695 -62.67260742 160.30322266 C-61.21311863 156.89866549 -59.7830779 153.48214475 -58.359375 150.0625 C-57.84890625 148.845625 -57.3384375 147.62875 -56.8125 146.375 C-56.36519531 145.28960937 -55.91789063 144.20421875 -55.45703125 143.0859375 C-54 140 -54 140 -52.0234375 137.04296875 C-49.87176465 133.80715186 -48.31159851 130.50257918 -46.8125 126.9375 C-46.52060791 126.25848633 -46.22871582 125.57947266 -45.92797852 124.87988281 C-44.94508862 122.58946473 -43.97154937 120.29525058 -43 118 C-41.48211948 114.41540461 -39.96181345 110.83186505 -38.4375 107.25 C-38.05118408 106.34096924 -37.66486816 105.43193848 -37.2668457 104.49536133 C-35.32045462 99.95101717 -33.30364361 95.50256099 -31 91.125 C-26.18248544 81.79861388 -22.73966637 71.79314875 -19 62 C-18.49683922 60.69372303 -17.99305068 59.38768745 -17.48828125 58.08203125 C-16.68912641 56.01229584 -15.89451746 53.94079674 -15.10546875 51.8671875 C-14.35741178 49.92699733 -13.58851209 47.99473638 -12.80078125 46.0703125 C-6.82365007 31.25004401 -2.75371016 15.72513432 0 0 Z " fill="#F58321" transform="translate(268,18)"/>
<path d="M0 0 C-2.71170505 9.11656858 -5.70413161 18.10140315 -8.89160156 27.06054688 C-9.63593906 29.15579252 -10.37279691 31.25357819 -11.109375 33.3515625 C-11.58549259 34.6954702 -12.0620387 36.03922619 -12.5390625 37.3828125 C-12.96396973 38.58309082 -13.38887695 39.78336914 -13.82666016 41.02001953 C-15 44 -15 44 -17 47 C-19.18264961 47.36914349 -19.18264961 47.36914349 -21.94802856 47.36076355 C-22.994133 47.36488754 -24.04023743 47.36901154 -25.11804199 47.3732605 C-26.27034302 47.36247467 -27.42264404 47.35168884 -28.60986328 47.34057617 C-29.81959808 47.34101425 -31.02933289 47.34145233 -32.27572632 47.34190369 C-35.59803394 47.34016858 -38.91978609 47.32509732 -42.24199533 47.30418181 C-45.71200336 47.28546021 -49.18201835 47.28366815 -52.65206909 47.28010559 C-59.22527769 47.27077179 -65.79833706 47.24614009 -72.37147987 47.21605712 C-79.85382957 47.18255452 -87.33618631 47.16603755 -94.81859231 47.15097082 C-110.21248138 47.11959158 -125.60622146 47.06680532 -141 47 C-141 48.32 -141 49.64 -141 51 C-141.66 51 -142.32 51 -143 51 C-143.20882812 52.13566406 -143.41765625 53.27132812 -143.6328125 54.44140625 C-145.17358609 61.36405596 -147.67101914 67.99068093 -150.05810547 74.65600586 C-150.87120757 76.92690818 -151.67649885 79.20045995 -152.48046875 81.47460938 C-154.88524033 88.25259088 -157.34357311 94.9890683 -160.06103516 101.64916992 C-161.91201904 106.28336749 -163.56896944 110.9896067 -165.25 115.6875 C-165.63768555 116.76604248 -166.02537109 117.84458496 -166.42480469 118.95581055 C-169.0888647 126.38927499 -171.68041161 133.84596277 -174.25 141.3125 C-176.90222301 149.01058856 -179.81223861 156.50445295 -183 164 C-184.65 168.62 -186.3 173.24 -188 178 C-147.08 178.33 -106.16 178.66 -64 179 C-67 191 -67 191 -72 202 C-74.64 209.59 -77.28 217.18 -80 225 C-142.04 225.33 -204.08 225.66 -268 226 C-267.27494027 220.92458192 -266.59688712 217.36957417 -264.890625 212.71875 C-264.46765137 211.55311523 -264.04467773 210.38748047 -263.60888672 209.18652344 C-263.1604541 207.9699707 -262.71202148 206.75341797 -262.25 205.5 C-261.3382375 202.99583953 -260.43110642 200.49002495 -259.5234375 197.984375 C-259.08741211 196.78361328 -258.65138672 195.58285156 -258.20214844 194.34570312 C-256.01853528 188.26848244 -253.98547803 182.144532 -252 176 C-251.34 176 -250.68 176 -250 176 C-249.90976562 175.22914063 -249.81953125 174.45828125 -249.7265625 173.6640625 C-248.74599781 168.71906423 -247.0681884 164.11616415 -245.375 159.375 C-244.64707191 157.31382451 -243.91920854 155.25262616 -243.19140625 153.19140625 C-242.82418457 152.1564502 -242.45696289 151.12149414 -242.07861328 150.05517578 C-241.06922121 147.19606932 -240.07565899 144.33215187 -239.08984375 141.46484375 C-238.78965332 140.5948877 -238.48946289 139.72493164 -238.18017578 138.82861328 C-237.62535987 137.21974081 -237.07273542 135.61010988 -236.52294922 133.99951172 C-235.0606368 129.78546766 -233.45475971 125.67520209 -231.69921875 121.57421875 C-228.23497235 113.35960246 -225.40452259 104.9242928 -222.5 96.5 C-216.33189052 78.60998241 -216.33189052 78.60998241 -213.51953125 72.078125 C-209.91083038 63.65441533 -207.11735585 54.92672468 -204.1875 46.25 C-203.58436129 44.4738303 -202.98084836 42.69778763 -202.37695312 40.921875 C-200.91365557 36.61603389 -199.45541449 32.30851172 -198 28 C-197.34 28 -196.68 28 -196 28 C-196.495 26.515 -196.495 26.515 -197 25 C-196.34 25 -195.68 25 -195 25 C-194.773125 23.824375 -194.54625 22.64875 -194.3125 21.4375 C-193.30130506 16.85781279 -191.91639561 12.44515277 -190.4375 8 C-190.21553955 7.3289624 -189.9935791 6.6579248 -189.76489258 5.96655273 C-188.12932926 1.12932926 -188.12932926 1.12932926 -187 0 C-184.62910489 -0.11223348 -182.28661026 -0.15940849 -179.9145813 -0.16494751 C-178.78941426 -0.17341282 -178.78941426 -0.17341282 -177.64151657 -0.18204916 C-175.10883669 -0.19985598 -172.57617622 -0.21049491 -170.04345703 -0.22119141 C-168.23538964 -0.2324 -166.42732483 -0.24403192 -164.6192627 -0.25605774 C-159.69367648 -0.28747145 -154.76807638 -0.31254814 -149.84244776 -0.3362546 C-144.69750993 -0.36178702 -139.55260014 -0.39213729 -134.40768433 -0.42172241 C-125.76383059 -0.47061161 -117.11996234 -0.51527952 -108.47607422 -0.55761719 C-98.47350523 -0.60667445 -88.47099634 -0.6629743 -78.46848786 -0.72303832 C-69.89356339 -0.77433609 -61.31862372 -0.82168426 -52.7436589 -0.86572587 C-47.61664909 -0.89206545 -42.48965686 -0.91979893 -37.36267471 -0.9510994 C-32.54142986 -0.98031642 -27.72018519 -1.00458736 -22.89889526 -1.02499962 C-21.12633228 -1.03332095 -19.35377652 -1.04338388 -17.58123398 -1.05528831 C-15.16727903 -1.07122081 -12.75337808 -1.08093214 -10.33938599 -1.08901978 C-9.63287214 -1.09514145 -8.9263583 -1.10126312 -8.19843495 -1.10757029 C-5.17394399 -1.11166806 -2.89622444 -0.96540815 0 0 Z " fill="#2EACE2" transform="translate(539,307)"/>
<path d="M0 0 C1.11018939 -0.00233999 1.11018939 -0.00233999 2.24280685 -0.00472724 C4.73561656 -0.0087323 7.22836593 -0.00554951 9.72117615 -0.00241089 C11.50307755 -0.00376514 13.28497868 -0.0055452 15.06687927 -0.00772095 C19.91585384 -0.01229215 24.76480721 -0.01050708 29.61378217 -0.00734186 C34.67822151 -0.00481705 39.74265898 -0.0071561 44.80709839 -0.00872803 C53.31215238 -0.0105492 61.81719769 -0.00814461 70.32225037 -0.00338745 C80.16977272 0.00205681 90.01727437 0.00029111 99.86479622 -0.00521386 C108.30554843 -0.00974439 116.74629439 -0.01039588 125.18704742 -0.00777519 C130.23460126 -0.00621231 135.28214535 -0.00601898 140.32969856 -0.00931168 C145.0730016 -0.01218958 149.81627782 -0.01021619 154.55957794 -0.00441742 C156.3055587 -0.00308946 158.0515417 -0.00348454 159.79752159 -0.00568008 C162.1705467 -0.00839016 164.54348445 -0.00501226 166.91650391 0 C167.61648847 -0.00223072 168.31647303 -0.00446144 169.03766924 -0.00675976 C173.78061015 0.01283366 173.78061015 0.01283366 174.89476013 1.12698364 C174.41133924 6.56897171 172.97182533 11.42973154 171.20726013 16.58010864 C170.94469421 17.36214661 170.6821283 18.14418457 170.41160583 18.94992065 C169.57831776 21.42755973 168.73670166 23.90227349 167.89476013 26.37698364 C167.32909941 28.05387934 166.76398985 29.73096106 166.19944763 31.40823364 C165.16769266 34.47092085 164.1329333 37.53255154 163.09397888 40.59280396 C162.35553495 42.76904874 161.62148847 44.94679862 160.89476013 47.12698364 C157.71636322 48.18644928 155.47630665 48.2476266 152.13816833 48.24050903 C150.95717056 48.2404335 149.77617279 48.24035797 148.55938721 48.24028015 C147.28431808 48.23511887 146.00924896 48.22995758 144.69554138 48.22463989 C143.39021957 48.22322495 142.08489777 48.22181 140.74002075 48.22035217 C137.27286357 48.21653744 133.8057484 48.20671608 130.33860779 48.19564819 C126.79938831 48.18541162 123.26016203 48.18084974 119.72093201 48.17581177 C112.77885748 48.16509287 105.83681082 48.14802898 98.89476013 48.12698364 C98.58772156 49.00322388 98.28068298 49.87946411 97.96434021 50.78225708 C96.80224344 54.09330537 95.63698807 57.40320885 94.4697113 60.71243286 C93.96913086 62.13354916 93.46974293 63.55508618 92.97166443 64.9770813 C90.60011205 71.74543926 88.22426013 78.4816069 85.40647888 85.08010864 C82.1931869 92.62741523 79.57491341 100.37865713 76.89476013 108.12698364 C71.25800435 124.42285177 71.25800435 124.42285177 68.46507263 130.91604614 C64.37963442 140.48139268 61.2053731 150.41231706 57.8278656 160.24368286 C56.91341287 162.90126643 55.99407925 165.55712612 55.07444763 168.21292114 C54.79938385 169.01925995 54.52432007 169.82559875 54.24092102 170.65637207 C52.73454624 175.00351665 50.98066191 179.01754573 48.89476013 183.12698364 C48.0889024 185.27076543 47.322263 187.42959282 46.59007263 189.59963989 C46.17112732 190.83005005 45.75218201 192.06046021 45.32054138 193.32815552 C44.88659931 194.6151475 44.45300661 195.90225733 44.01976013 197.18948364 C34.92579058 224.0959532 34.92579058 224.0959532 32.89476013 226.12698364 C30.99232251 226.22089661 29.08637554 226.24442022 27.18162537 226.24050903 C25.96043503 226.2404335 24.73924469 226.24035797 23.48104858 226.24028015 C22.13848328 226.23517276 20.79591838 226.22995675 19.45335388 226.22463989 C18.08714855 226.22277564 16.72094256 226.22135177 15.35473633 226.22035217 C11.75274318 226.21652758 8.15079013 226.20669781 4.54881287 226.19564819 C0.87572268 226.1854328 -2.79737396 226.18085428 -6.47047424 226.17581177 C-13.6820811 226.16507548 -20.89365487 226.14799978 -28.10523987 226.12698364 C-27.51204076 220.94097533 -26.8255856 216.83460184 -24.73023987 212.00198364 C-21.69965159 204.7788399 -18.95969613 197.45479464 -16.26582336 190.10067749 C-15.79238169 188.80839392 -15.31785439 187.51650744 -14.84211731 186.22506714 C-11.41317312 176.91559143 -8.19476834 167.55351356 -5.10523987 158.12698364 C-4.44523987 158.12698364 -3.78523987 158.12698364 -3.10523987 158.12698364 C-3.43523987 157.13698364 -3.76523987 156.14698364 -4.10523987 155.12698364 C-3.44523987 155.12698364 -2.78523987 155.12698364 -2.10523987 155.12698364 C-1.87578674 153.92944458 -1.64633362 152.73190552 -1.40992737 151.49807739 C0.06605346 144.86653963 2.44999369 138.56376897 4.76976013 132.18948364 C5.20417419 130.97840942 5.63858826 129.76733521 6.08616638 128.51956177 C8.25994539 122.49107853 10.51702093 116.51284619 12.92503357 110.57449341 C14.75862469 105.94666085 16.40998288 101.25246533 18.08226013 96.56448364 C18.46664246 95.49254761 18.85102478 94.42061157 19.24705505 93.31619263 C20.46469166 89.92040811 21.68002171 86.52380588 22.89476013 83.12698364 C24.49682632 78.64706108 26.10131617 74.16801738 27.70726013 69.68948364 C28.0677948 68.67877808 28.42832947 67.66807251 28.79978943 66.6267395 C29.14695007 65.65873413 29.49411072 64.69072876 29.85179138 63.69338989 C30.15061218 62.85751343 30.44943298 62.02163696 30.75730896 61.16043091 C32.39687312 56.78790791 34.16043613 52.46279364 35.89476013 48.12698364 C16.09476013 48.12698364 -3.70523987 48.12698364 -24.10523987 48.12698364 C-25.22961723 44.75385155 -25.06974357 44.39140369 -23.73414612 41.30276489 C-23.41075256 40.53230835 -23.08735901 39.76185181 -22.75416565 38.9680481 C-22.39564514 38.13362183 -22.03712463 37.29919556 -21.66773987 36.43948364 C-17.87051106 27.34629829 -14.68170446 18.13272908 -11.72071838 8.73562622 C-11.4067511 7.75746948 -11.09278381 6.77931274 -10.76930237 5.77151489 C-10.49553772 4.89857788 -10.22177307 4.02564087 -9.93971252 3.12625122 C-8.18218872 -1.08450432 -3.9308148 -0.01256683 0 0 Z " fill="#2FADE2" transform="translate(562.1052398681641,305.8730163574219)"/>
<path d="M0 0 C1.96064482 0.40565065 3.91840555 0.82524277 5.875 1.25 C7.51082031 1.59804687 7.51082031 1.59804687 9.1796875 1.953125 C13.96362971 3.26406213 18.42328275 5.10355616 23 7 C24.74138472 7.69472395 26.48358067 8.38741778 28.2265625 9.078125 C44.52167802 15.60722989 59.8961501 23.06384751 75 32 C76.63582031 32.95519531 76.63582031 32.95519531 78.3046875 33.9296875 C84.60118246 37.68946507 90.45374092 41.74805251 96.19335938 46.29077148 C99.70036991 49.05375852 103.29169671 51.53655884 107.0625 53.9375 C113.14551379 57.90712855 118.20349937 62.55347839 123.44213867 67.55273438 C125.19813183 69.18406605 127.00253005 70.74972455 128.81640625 72.31640625 C142.03748076 83.83128343 154.12240126 96.48274984 164 111 C164.42796875 111.61061279 164.8559375 112.22122559 165.296875 112.8503418 C167.18867115 115.77254789 168.10522453 117.37629009 167.515625 120.87109375 C167.09796875 121.71800781 166.6803125 122.56492187 166.25 123.4375 C165.84265625 124.30246094 165.4353125 125.16742188 165.015625 126.05859375 C164.68046875 126.69925781 164.3453125 127.33992188 164 128 C163.34 128 162.68 128 162 128 C161.64292969 129.16402344 161.28585938 130.32804688 160.91796875 131.52734375 C158.51482805 138.72551651 155.37009417 145.62497241 152.3125 152.5625 C151.9980896 153.27919861 151.6836792 153.99589722 151.35974121 154.73431396 C147.43904103 163.66563002 143.40357522 172.48831477 138.92578125 181.15625 C135.94134745 187.00201562 133.32973725 193.02756021 130.63964844 199.01245117 C128.36650038 204.05091272 126.02641057 209.02140225 123.5 213.9375 C119.87950716 221.03298125 116.77721632 228.33486455 113.63867188 235.65380859 C111.0108108 241.75680336 108.26910045 247.72486572 105.15625 253.59765625 C103.83979869 256.3328507 102.90722144 259.10613162 102 262 C101.34 262 100.68 262 100 262 C100.12230622 260.41645631 100.24817004 258.8331878 100.375 257.25 C100.50841797 255.57550781 100.50841797 255.57550781 100.64453125 253.8671875 C100.88875267 251.21027317 101.1696486 248.58841191 101.51171875 245.9453125 C105.98426419 209.94667923 103.48418005 171.84904765 91.69921875 137.42578125 C91 135 91 135 91 131 C90.34 131 89.68 131 89 131 C88.35675399 129.39188499 87.71355255 127.78375214 87.07055664 126.17553711 C86.51844329 124.79582868 85.9655317 123.41643943 85.41186523 122.03735352 C84.24203354 119.12112778 83.07825466 116.20486895 81.95703125 113.26953125 C79.75617522 107.53192841 77.11726793 102.09228133 74.28540039 96.64428711 C72 92.20506054 72 92.20506054 72 90 C71.34 90 70.68 90 70 90 C68.98535156 88.55737305 68.98535156 88.55737305 67.890625 86.51171875 C67.47296875 85.75205811 67.0553125 84.99239746 66.625 84.2097168 C66.17125 83.37738525 65.7175 82.54505371 65.25 81.6875 C59.32058631 71.1327053 52.37083802 61.58208943 45 52 C44.02836689 50.71765923 43.0569955 49.43512009 42.0859375 48.15234375 C36.25478688 40.52244197 29.96026416 33.44912275 23.36962891 26.47119141 C21.38326536 24.33753246 19.4787896 22.13405133 17.5625 19.9375 C13.41515043 15.26981875 8.87194198 11.11311713 4.16430664 7.02124023 C2.72196401 5.73937301 1.35396266 4.37488944 0 3 C0 2.01 0 1.02 0 0 Z " fill="#F58322" transform="translate(0,123)"/>
<path d="M0 0 C0.83920486 0.0028299 1.67840973 0.00565979 2.54304504 0.00857544 C5.22285228 0.01976865 7.90232506 0.04487149 10.58203125 0.0703125 C12.39908371 0.08034342 14.21614142 0.08946907 16.03320312 0.09765625 C20.487108 0.11970516 24.94076292 0.15422899 29.39453125 0.1953125 C30.95065022 4.92837154 28.98548928 8.21206202 27.08203125 12.5703125 C22.8268046 22.70244273 19.35386912 33.03561126 15.98510742 43.48583984 C14.17497972 49.05256448 12.31959403 54.52401739 10.00390625 59.90234375 C6.09333825 69.03537296 3.12772324 78.52584826 -0.02416992 87.94018555 C-0.86157443 90.43657637 -1.70411448 92.93119446 -2.546875 95.42578125 C-2.79490372 96.17288864 -3.04293243 96.91999603 -3.29847717 97.68974304 C-4.83462854 102.23449619 -6.63810274 106.56986155 -8.6212616 110.93641663 C-10.23960448 114.65074451 -11.53941166 118.46459599 -12.84765625 122.296875 C-13.13851105 123.13640717 -13.42936584 123.97593933 -13.72903442 124.84091187 C-14.64990348 127.49944303 -15.56578894 130.15964611 -16.48046875 132.8203125 C-20.1379976 143.45558272 -23.86647529 153.99984632 -28.11376953 164.41552734 C-31.05062073 171.73835472 -33.53250338 179.23905735 -36.10546875 186.6953125 C-39.6232777 196.88965145 -43.2254269 207.00207635 -47.32617188 216.97851562 C-48.5312226 220.00862027 -49.57427132 223.10172021 -50.60546875 226.1953125 C-64.13546875 226.1953125 -77.66546875 226.1953125 -91.60546875 226.1953125 C-88.23046875 213.8203125 -88.23046875 213.8203125 -86.5625 209.08984375 C-86.21123047 208.08759766 -85.85996094 207.08535156 -85.49804688 206.05273438 C-85.14162109 205.04791016 -84.78519531 204.04308594 -84.41796875 203.0078125 C-84.04994141 201.96044922 -83.68191406 200.91308594 -83.30273438 199.83398438 C-82.40705613 197.28653587 -81.50793059 194.74036398 -80.60546875 192.1953125 C-79.94546875 192.1953125 -79.28546875 192.1953125 -78.60546875 192.1953125 C-78.34805908 190.92727783 -78.09064941 189.65924316 -77.82543945 188.3527832 C-76.62888859 182.98261054 -74.90795192 177.86163659 -73.0859375 172.67578125 C-72.74548904 171.69595779 -72.40504059 170.71613434 -72.05427551 169.70661926 C-71.33638675 167.64430328 -70.61602429 165.58284688 -69.89331055 163.5222168 C-68.80054655 160.40443285 -67.71706767 157.28353834 -66.63476562 154.16210938 C-63.57478541 145.37491252 -60.48464372 136.66197137 -56.79711914 128.11499023 C-54.43017412 122.31570823 -52.4980237 116.35477833 -50.50067139 110.42022705 C-49.18579065 106.51518025 -47.85689725 102.61491507 -46.52734375 98.71484375 C-46.26936005 97.95762024 -46.01137634 97.20039673 -45.74557495 96.42022705 C-43.66363436 90.32673828 -41.47041346 84.28132793 -39.20336914 78.25439453 C-34.74752222 66.3293745 -30.72265163 54.2404082 -26.60546875 42.1953125 C-25.94546875 42.1953125 -25.28546875 42.1953125 -24.60546875 42.1953125 C-24.49444824 41.3693457 -24.38342773 40.54337891 -24.26904297 39.69238281 C-23.51831158 35.73598973 -22.318006 32.0314466 -20.98828125 28.2421875 C-20.60154739 27.13003876 -20.60154739 27.13003876 -20.20700073 25.99542236 C-19.66324145 24.43808922 -19.11681838 22.88168387 -18.56787109 21.32617188 C-17.72948158 18.94250583 -16.90745894 16.55358635 -16.0859375 14.1640625 C-15.55437638 12.64808966 -15.02185752 11.13245224 -14.48828125 9.6171875 C-14.24441681 8.9026239 -14.00055237 8.1880603 -13.7492981 7.45184326 C-11.04179389 -0.1081653 -7.34777119 -0.09298278 0 0 Z " fill="#2FADE3" transform="translate(295.60546875,305.8046875)"/>
<path d="M0 0 C0.86602341 0.00359528 1.73204681 0.00719055 2.62431335 0.01089478 C3.98515549 0.01067574 3.98515549 0.01067574 5.37348938 0.01045227 C8.38737843 0.01115176 11.40120651 0.01894582 14.41508484 0.02676392 C16.49873826 0.02862797 18.58239212 0.03005193 20.66604614 0.03105164 C26.16191305 0.03487783 31.65775372 0.04470897 37.15361023 0.05575562 C42.75704086 0.06596757 48.36047572 0.07054879 53.96391296 0.07559204 C64.96717973 0.08633115 75.97042698 0.10340877 86.97367859 0.12442017 C88.22160574 5.12421818 87.14230813 8.47956204 85.34867859 13.18692017 C85.07233582 13.9384436 84.79599304 14.68996704 84.51127625 15.46426392 C81.025806 24.84960826 77.0395141 33.97629026 72.97367859 43.12442017 C41.95367859 43.12442017 10.93367859 43.12442017 -21.02632141 43.12442017 C-20.32250039 38.19767299 -19.62703721 34.41520215 -18.10054016 29.81582642 C-17.715755 28.6563147 -17.33096985 27.49680298 -16.93452454 26.30215454 C-16.5316925 25.1091272 -16.12886047 23.91609985 -15.71382141 22.68692017 C-15.32259094 21.49776001 -14.93136047 20.30859985 -14.52827454 19.08340454 C-8.14366518 0.01428107 -8.14366518 0.01428107 0 0 Z " fill="#31AEE3" transform="translate(406.0263214111328,397.8755798339844)"/>
<path d="M0 0 C6.55951748 4.89654122 9.94445831 11.27723033 13.21875 18.65625 C13.59257813 19.41035156 13.96640625 20.16445313 14.3515625 20.94140625 C15.52707476 24.62150093 15.43243451 28.15190495 15.34375 31.96875 C15.33472656 32.70931641 15.32570313 33.44988281 15.31640625 34.21289062 C15.29299213 36.02748467 15.25712615 37.84191071 15.21875 39.65625 C14.55875 39.65625 13.89875 39.65625 13.21875 39.65625 C13.198125 40.584375 13.1775 41.5125 13.15625 42.46875 C11.95002254 50.72805749 5.63396909 58.1131637 -0.6640625 63.22265625 C-10.2512973 69.71438166 -20.50485769 70.64594072 -31.78125 69.65625 C-39.71747883 68.05550397 -45.22836118 64.42090153 -50.78125 58.65625 C-51.72484375 57.70878906 -51.72484375 57.70878906 -52.6875 56.7421875 C-60.30933182 48.63591722 -63.12709398 39.80329626 -63.08203125 28.79296875 C-62.54320723 23.17380396 -60.666744 17.95078448 -58.78125 12.65625 C-58.12125 12.65625 -57.46125 12.65625 -56.78125 12.65625 C-56.554375 11.955 -56.3275 11.25375 -56.09375 10.53125 C-52.30330944 2.2283802 -45.39306582 -2.20934142 -37.0390625 -5.38671875 C-23.86009781 -9.36280866 -11.58123075 -7.47649074 0 0 Z M-47.5390625 11.6796875 C-53.93673453 19.74631744 -54.66717507 27.53920449 -53.78125 37.65625 C-51.92256377 45.74404685 -48.63342892 52.14927642 -41.58203125 56.73828125 C-33.06419674 60.96381393 -25.67361927 64.37098015 -16.15625 61.46875 C-11.88255312 59.82326243 -7.82944119 57.79075081 -3.78125 55.65625 C-3.78125 55.32625 -3.78125 54.99625 -3.78125 54.65625 C-6.09125 54.32625 -8.40125 53.99625 -10.78125 53.65625 C-11.05324219 52.93566406 -11.32523438 52.21507812 -11.60546875 51.47265625 C-14.1646702 45.34247603 -17.65830926 37.71772037 -23.78125 34.65625 C-27.18899193 34.35170604 -30.34550542 34.47301029 -33.78125 34.65625 C-34.11125 40.92625 -34.44125 47.19625 -34.78125 53.65625 C-36.76125 53.65625 -38.74125 53.65625 -40.78125 53.65625 C-41.11125 38.80625 -41.44125 23.95625 -41.78125 8.65625 C-37.285 8.759375 -32.78875 8.8625 -28.15625 8.96875 C-26.04549072 9.00609253 -26.04549072 9.00609253 -23.89208984 9.04418945 C-22.77012207 9.07730225 -21.6481543 9.11041504 -20.4921875 9.14453125 C-19.35056152 9.17071533 -18.20893555 9.19689941 -17.03271484 9.22387695 C-13.37056055 9.71086263 -10.93154066 10.74859613 -7.78125 12.65625 C-5.35319212 16.02420125 -4.52700231 18.63537809 -4.78125 22.71875 C-5.51581709 26.94049275 -7.41223426 28.99237709 -10.78125 31.65625 C-12.10246793 32.34661613 -13.43386173 33.01846707 -14.78125 33.65625 C-13.915 34.605 -13.04875 35.55375 -12.15625 36.53125 C-8.91881952 40.26615798 -6.54679801 44.29318449 -4.17578125 48.6171875 C-2.87431737 50.96108901 -2.87431737 50.96108901 0.21875 51.65625 C6.90097379 44.51318319 7.80752368 36.51810506 7.5625 27.0234375 C6.69909707 18.56601334 2.34303937 12.36892725 -3.78125 6.65625 C-18.29074136 -4.80014198 -35.79653143 -1.83727049 -47.5390625 11.6796875 Z M-33.78125 14.65625 C-33.78125 18.94625 -33.78125 23.23625 -33.78125 27.65625 C-31.19784616 27.68328562 -28.61472692 27.70310611 -26.03125 27.71875 C-25.30164063 27.72712891 -24.57203125 27.73550781 -23.8203125 27.74414062 C-20.31435111 27.76007681 -17.12382571 27.7528385 -13.78125 26.65625 C-12.02408153 24.31335871 -11.76332402 23.02373262 -11.90625 20.09375 C-13.0354886 16.94801391 -13.84006018 16.26053536 -16.78125 14.65625 C-19.70776542 14.29350495 -22.58820836 14.37357701 -25.53125 14.46875 C-26.32402344 14.48228516 -27.11679687 14.49582031 -27.93359375 14.50976562 C-29.88310564 14.54499777 -31.83226626 14.59880179 -33.78125 14.65625 Z " fill="#42B5E6" transform="translate(831.78125,248.34375)"/>
<path d="M0 0 C0 0.33 0 0.66 0 1 C-2.3260857 1.38063221 -4.66055264 1.71269945 -7 2 C-7.495 1.505 -7.495 1.505 -8 1 C-10.67058851 0.85884839 -13.32432238 0.95752893 -16 1 C-16.33 1.66 -16.66 2.32 -17 3 C-15.68 2.67 -14.36 2.34 -13 2 C-13 2.66 -13 3.32 -13 4 C-10.69 4.33 -8.38 4.66 -6 5 C-8.72876817 5.90958939 -10.69787577 5.97593532 -13.625 5.875 C-21.87535385 5.82899431 -28.31074909 8.409936 -34.24609375 14.10546875 C-41.43228405 21.86783466 -43.4776339 28.75238064 -43.3203125 39.3828125 C-42.65205011 46.92928775 -40.20888928 53.44206144 -35 59 C-27.83468643 63.58435679 -19.72181704 67.82503675 -11 67 C-8.57420013 66.40910003 -6.3109363 65.67293005 -3.984375 64.76953125 C-1.69379013 63.88125326 0.57781248 63.39067541 3 63 C2.34 63.99 1.68 64.98 1 66 C-1.625 66.1875 -1.625 66.1875 -4 66 C-4 66.66 -4 67.32 -4 68 C-7.5798452 68.81862159 -10.89237101 69.13520898 -14.5625 69.125 C-15.95662109 69.12886719 -15.95662109 69.12886719 -17.37890625 69.1328125 C-19.74147476 69.01309964 -21.74030763 68.66993233 -24 68 C-24.33 68.99 -24.66 69.98 -25 71 C-21.70347389 72.64826306 -18.05838063 72.19039728 -14.4375 72.1875 C-13.6242627 72.18814453 -12.81102539 72.18878906 -11.97314453 72.18945312 C-6.38367787 72.14019686 -1.38365657 71.5951575 4 70 C1.31375425 73.47631803 -1.8202567 74.07976845 -6 75 C-17.49751175 76.01726956 -28.04559583 75.42619202 -37.25 67.75 C-38.5232617 66.52370287 -39.77360344 65.27316592 -41 64 C-41.94359375 63.05253906 -41.94359375 63.05253906 -42.90625 62.0859375 C-50.52808182 53.97966722 -53.34584398 45.14704626 -53.30078125 34.13671875 C-52.76195723 28.51755396 -50.885494 23.29453448 -49 18 C-48.34 18 -47.68 18 -47 18 C-46.773125 17.29875 -46.54625 16.5975 -46.3125 15.875 C-42.52205944 7.5721302 -35.61181582 3.13440858 -27.2578125 -0.04296875 C-17.82606476 -2.88852437 -9.44036482 -2.55391512 0 0 Z " fill="#3EB6E7" transform="translate(822,243)"/>
<path d="M0 0 C1.79158489 -0.02696365 3.58328473 -0.04637917 5.375 -0.0625 C6.37273438 -0.07410156 7.37046875 -0.08570313 8.3984375 -0.09765625 C11 0 11 0 13 1 C14.155 0.896875 15.31 0.79375 16.5 0.6875 C22.98155362 0.61679214 28.11215347 4.41415049 32.79296875 8.60546875 C36.94862997 13.10298385 39.53324893 18.44087259 42 24 C42.37382813 24.75410156 42.74765625 25.50820313 43.1328125 26.28515625 C44.30832476 29.96525093 44.21368451 33.49565495 44.125 37.3125 C44.11597656 38.05306641 44.10695313 38.79363281 44.09765625 39.55664062 C44.07424213 41.37123467 44.03837615 43.18566071 44 45 C43.34 45 42.68 45 42 45 C41.979375 45.928125 41.95875 46.85625 41.9375 47.8125 C40.76068597 55.8704072 34.50040043 63.67361052 28.26171875 68.62890625 C19.13702899 74.16045393 6.3962921 74.16342629 -4 73 C-7.03515625 71.98046875 -7.03515625 71.98046875 -9 71 C-6.6875 68.9375 -6.6875 68.9375 -4 67 C-3.01 67.33 -2.02 67.66 -1 68 C1.73865287 68.07051114 4.45027588 68.09357765 7.1875 68.0625 C7.93708984 68.05798828 8.68667969 68.05347656 9.45898438 68.04882812 C11.30602383 68.03706354 13.15302213 68.01912865 15 68 C15 67.34 15 66.68 15 66 C15.928125 65.731875 16.85625 65.46375 17.8125 65.1875 C20.76240366 64.08851629 22.05615186 63.37581439 24 61 C24.99 61.495 24.99 61.495 26 62 C26 61.34 26 60.68 26 60 C26.77730469 59.41992188 27.55460938 58.83984375 28.35546875 58.2421875 C33.7540569 53.66495028 34.66818462 46.13046024 35.38671875 39.3515625 C35.61661618 32.04240972 35.00110742 26.1999142 31 20 C30.56042969 19.31421875 30.12085938 18.6284375 29.66796875 17.921875 C23.69656042 10.00031054 13.99295479 6.49537488 5 3 C4.67 3.33 4.34 3.66 4 4 C2.00041636 4.04080783 -0.00045254 4.04254356 -2 4 C-0.68 3.34 0.64 2.68 2 2 C1.34 1.34 0.68 0.68 0 0 Z " fill="#3AB1E5" transform="translate(803,243)"/>
<path d="M0 0 C0.86602341 0.00359528 1.73204681 0.00719055 2.62431335 0.01089478 C3.98515549 0.01067574 3.98515549 0.01067574 5.37348938 0.01045227 C8.38737843 0.01115176 11.40120651 0.01894582 14.41508484 0.02676392 C16.49873826 0.02862797 18.58239212 0.03005193 20.66604614 0.03105164 C26.16191305 0.03487783 31.65775372 0.04470897 37.15361023 0.05575562 C42.75704086 0.06596757 48.36047572 0.07054879 53.96391296 0.07559204 C64.96717973 0.08633115 75.97042698 0.10340877 86.97367859 0.12442017 C87.76525013 3.69241237 88.07294477 5.82993405 86.82914734 9.29629517 C86.564245 10.04266235 86.29934265 10.78902954 86.02641296 11.55801392 C85.74088562 12.32242798 85.45535828 13.08684204 85.16117859 13.87442017 C84.88725281 14.65430298 84.61332703 15.43418579 84.33110046 16.23770142 C82.24587555 21.98832169 82.24587555 21.98832169 79.97367859 23.12442017 C80.97367859 17.12442017 80.97367859 17.12442017 85.97367859 3.12442017 C55.28367859 3.12442017 24.59367859 3.12442017 -7.02632141 3.12442017 C-7.35632141 5.10442017 -7.68632141 7.08442017 -8.02632141 9.12442017 C-8.7730337 11.73522716 -9.55128747 14.29901972 -10.40132141 16.87442017 C-10.61014954 17.54602173 -10.81897766 18.21762329 -11.03413391 18.90957642 C-12.23799817 22.57255363 -12.72122252 23.9210209 -16.02632141 26.12442017 C-10.66406557 0.01870096 -10.66406557 0.01870096 0 0 Z " fill="#53D8F2" transform="translate(406.0263214111328,397.8755798339844)"/>
<path d="M0 0 C1.40217475 2.8043495 0.71222664 4.89489845 -0.07421875 7.83203125 C-2.08208105 12.53398727 -5.96348249 15.87455611 -10.375 18.3125 C-11.674375 18.6528125 -11.674375 18.6528125 -13 19 C-14.216875 19.37125 -15.43375 19.7425 -16.6875 20.125 C-21.52439349 21.15621587 -26.32439813 21.21739648 -31.25 21.25 C-32.03076904 21.25918457 -32.81153809 21.26836914 -33.6159668 21.27783203 C-37.85999527 21.25505631 -41.12818961 20.95139244 -45 19 C-42.6875 16.9375 -42.6875 16.9375 -40 15 C-39.01 15.33 -38.02 15.66 -37 16 C-34.26134713 16.07051114 -31.54972412 16.09357765 -28.8125 16.0625 C-28.06291016 16.05798828 -27.31332031 16.05347656 -26.54101562 16.04882812 C-24.69397617 16.03706354 -22.84697787 16.01912865 -21 16 C-21 15.34 -21 14.68 -21 14 C-20.071875 13.731875 -19.14375 13.46375 -18.1875 13.1875 C-15.23759634 12.08851629 -13.94384814 11.37581439 -12 9 C-11.34 9.33 -10.68 9.66 -10 10 C-10 9.34 -10 8.68 -10 8 C-8.34614767 6.65080468 -6.678298 5.31866272 -5 4 C-4.34 3.01 -3.68 2.02 -3 1 C-2.01 0.67 -1.02 0.34 0 0 Z " fill="#1BA5E0" transform="translate(839,295)"/>
<path d="M0 0 C3.898125 -0.04125 7.79625 -0.0825 11.8125 -0.125 C13.03815674 -0.14320801 14.26381348 -0.16141602 15.52661133 -0.18017578 C16.4936499 -0.1851709 17.46068848 -0.19016602 18.45703125 -0.1953125 C19.9416687 -0.21102295 19.9416687 -0.21102295 21.45629883 -0.22705078 C24 0 24 0 27 2 C27.886875 2.556875 28.77375 3.11375 29.6875 3.6875 C32 6 32 6 32.3125 9.75 C32.209375 10.8225 32.10625 11.895 32 13 C30.79371992 10.66785852 29.8345262 8.50357861 29 6 C22.37696964 4.91868892 15.88576233 4.95609126 9.1953125 5.0625 C6 5 6 5 4 4 C4 8.95 4 13.9 4 19 C3.34 19 2.68 19 2 19 C1.67 26.26 1.34 33.52 1 41 C1.66 41 2.32 41 3 41 C3 35.39 3 29.78 3 24 C3.33 24 3.66 24 4 24 C4 30.27 4 36.54 4 43 C2.68 43 1.36 43 0 43 C0 28.81 0 14.62 0 0 Z " fill="#14A2DF" transform="translate(792,258)"/>
<path d="M0 0 C-0.62231644 2.0633113 -1.24796785 4.1256169 -1.875 6.1875 C-2.22304688 7.33605469 -2.57109375 8.48460937 -2.9296875 9.66796875 C-3.84218871 12.50871157 -4.84980364 15.24885465 -6 18 C-7.6852084 13.92320841 -6.16939007 11.16924407 -4.5625 7.25 C-3.85287109 5.49429687 -3.85287109 5.49429687 -3.12890625 3.703125 C-2.75636719 2.81109375 -2.38382813 1.9190625 -2 1 C-25.95610966 1.10711769 -49.91218712 1.21985702 -73.86823845 1.33933926 C-84.99076143 1.39468159 -96.11328763 1.44816523 -107.23583984 1.49731445 C-116.92716643 1.54014394 -126.61846929 1.58641878 -136.30975926 1.63687855 C-141.44399532 1.66348946 -146.57822664 1.68834277 -151.71249008 1.70907402 C-156.54032822 1.72862232 -161.36812117 1.75276064 -166.19591904 1.78049088 C-167.97210878 1.7898709 -169.74830845 1.79754274 -171.52451324 1.80341911 C-173.94110524 1.81166416 -176.35758709 1.82593623 -178.7741394 1.84178162 C-179.48424821 1.84275972 -180.19435701 1.84373783 -180.92598426 1.84474558 C-184.58638171 1.83068541 -184.58638171 1.83068541 -188 3 C-187.67 2.01 -187.34 1.02 -187 0 C-163.06122729 -0.15382055 -139.1224249 -0.30185605 -115.18357372 -0.4429636 C-104.0688967 -0.50861463 -92.95423734 -0.5761742 -81.83959961 -0.64819336 C-72.15453007 -0.71094458 -62.46944654 -0.77014895 -52.78432924 -0.82505554 C-47.65394528 -0.85426546 -42.52358623 -0.88527763 -37.39323997 -0.92053413 C-32.56790769 -0.95363858 -27.74257108 -0.98201329 -22.91718864 -1.00670624 C-21.14301229 -1.01662891 -19.36884477 -1.02830338 -17.59469223 -1.04183006 C-15.17849871 -1.05999392 -12.76235287 -1.07194185 -10.34611511 -1.08229065 C-9.63891915 -1.08909444 -8.93172319 -1.09589823 -8.20309705 -1.10290819 C-5.17602976 -1.10989121 -2.89878307 -0.96626102 0 0 Z " fill="#9CDFF6" transform="translate(539,307)"/>
<path d="M0 0 C1.30758573 3.9227572 0.37582665 5.45238322 -1.01953125 9.3125 C-1.46490234 10.55257813 -1.91027344 11.79265625 -2.36914062 13.0703125 C-2.60608643 13.71516602 -2.84303223 14.36001953 -3.0871582 15.02441406 C-3.80857006 16.98929618 -4.51574251 18.95885105 -5.22070312 20.9296875 C-8.71273833 30.5691075 -8.71273833 30.5691075 -11 34 C-13.55630493 34.36076355 -13.55630493 34.36076355 -16.82666016 34.34057617 C-18.04777496 34.34034958 -19.26888977 34.34012299 -20.52700806 34.33988953 C-21.86436323 34.32456852 -23.2017147 34.30892051 -24.5390625 34.29296875 C-25.90383438 34.28737422 -27.26861228 34.28310344 -28.63339233 34.28010559 C-32.22730107 34.2686454 -35.82084667 34.23916871 -39.41461182 34.20599365 C-43.0810454 34.17531771 -46.7475376 34.16160559 -50.4140625 34.14648438 C-57.60954064 34.11429964 -64.80471946 34.06308972 -72 34 C-71.05859375 25.4375 -71.05859375 25.4375 -69.58984375 21.9375 C-69.32236328 21.28652344 -69.05488281 20.63554688 -68.77929688 19.96484375 C-68.50150391 19.31644531 -68.22371094 18.66804687 -67.9375 18 C-67.51500977 16.98099609 -67.51500977 16.98099609 -67.08398438 15.94140625 C-66.39808689 14.29060213 -65.70030171 12.64474531 -65 11 C-63.88714052 13.79555663 -63.97791261 14.93472548 -64.9609375 17.83984375 C-65.42757812 18.86207031 -65.89421875 19.88429688 -66.375 20.9375 C-68.1223932 24.79836039 -69.15528012 27.77640059 -70 32 C-50.53 32 -31.06 32 -11 32 C-10.01 28.7 -9.02 25.4 -8 22 C-7.41901172 20.23445256 -6.82638767 18.47258187 -6.2109375 16.71875 C-5.90929687 15.85765625 -5.60765625 14.9965625 -5.296875 14.109375 C-4.99265625 13.24828125 -4.6884375 12.3871875 -4.375 11.5 C-3.90707031 10.16195313 -3.90707031 10.16195313 -3.4296875 8.796875 C-1.13632015 2.27264031 -1.13632015 2.27264031 0 0 Z " fill="#B3E4F7" transform="translate(606,498)"/>
<path d="M0 0 C3.6507185 5.47607775 4.27637911 9.79737617 4.125 16.3125 C4.11597656 17.05306641 4.10695313 17.79363281 4.09765625 18.55664062 C4.07424213 20.37123467 4.03837615 22.18566071 4 24 C3.34 24 2.68 24 2 24 C1.9175 25.010625 1.835 26.02125 1.75 27.0625 C1.15993932 31.37786916 -0.68916002 34.34738197 -3 38 C-3.33 38 -3.66 38 -4 38 C-4 36.02 -4 34.04 -4 32 C-5.98 32.495 -5.98 32.495 -8 33 C-7.7834375 32.36835938 -7.566875 31.73671875 -7.34375 31.0859375 C-4.33199792 21.40928961 -4.13400198 11.94697329 -6 2 C-2.71484079 5.28515921 -2.06447226 8.86786706 -1.8046875 13.4296875 C-1.83949219 15.13511719 -1.83949219 15.13511719 -1.875 16.875 C-1.89304687 18.02742188 -1.91109375 19.17984375 -1.9296875 20.3671875 C-1.96449219 21.67042969 -1.96449219 21.67042969 -2 23 C-1.34 22.34 -0.68 21.68 0 21 C-0.33 21 -0.66 21 -1 21 C-0.67 14.07 -0.34 7.14 0 0 Z " fill="#51BCEA" transform="translate(843,264)"/>
<path d="M0 0 C1 4 1 4 -3 15 C26.7 15.495 26.7 15.495 57 16 C56.67 17.32 56.34 18.64 56 20 C55.505 19.01 55.505 19.01 55 18 C35.2 18 15.4 18 -5 18 C-6.39214652 13.82356045 -4.70664266 11.16562207 -3.0625 7.3125 C-2.77181641 6.61060547 -2.48113281 5.90871094 -2.18164062 5.18554688 C-1.46289687 3.45349225 -0.73254669 1.72626219 0 0 Z " fill="#B1E4F7" transform="translate(543,336)"/>
<path d="M0 0 C9.24 0 18.48 0 28 0 C28 0.33 28 0.66 28 1 C19.42 1 10.84 1 2 1 C2 15.19 2 29.38 2 44 C3.65 44 5.3 44 7 44 C7 38.06 7 32.12 7 26 C7.33 26 7.66 26 8 26 C8.02888514 29.14581423 8.04675923 32.29159469 8.0625 35.4375 C8.07087891 36.33533203 8.07925781 37.23316406 8.08789062 38.15820312 C8.09111328 39.01220703 8.09433594 39.86621094 8.09765625 40.74609375 C8.10289307 41.53685303 8.10812988 42.3276123 8.11352539 43.14233398 C8 45 8 45 7 46 C4 46.125 4 46.125 1 46 C0 45 0 45 -0.12025452 43.17137146 C-0.11803391 42.37417191 -0.11581329 41.57697235 -0.11352539 40.75561523 C-0.11344986 39.85475693 -0.11337433 38.95389862 -0.11329651 38.02574158 C-0.10813522 37.04658279 -0.10297394 36.06742401 -0.09765625 35.05859375 C-0.0962413 34.06118668 -0.09482635 33.0637796 -0.09336853 32.03614807 C-0.08775114 28.83656876 -0.07519571 25.63705831 -0.0625 22.4375 C-0.05748724 20.27408955 -0.05292395 18.11067801 -0.04882812 15.94726562 C-0.03862505 10.63146226 -0.01905308 5.31580861 0 0 Z " fill="#6DC7EE" transform="translate(790,257)"/>
<path d="M0 0 C0 0.33 0 0.66 0 1 C-2.3260857 1.38063221 -4.66055264 1.71269945 -7 2 C-7.495 1.505 -7.495 1.505 -8 1 C-10.67058851 0.85884839 -13.32432238 0.95752893 -16 1 C-16.33 1.66 -16.66 2.32 -17 3 C-15.68 2.67 -14.36 2.34 -13 2 C-13 2.66 -13 3.32 -13 4 C-10.69 4.33 -8.38 4.66 -6 5 C-8.72876817 5.90958939 -10.69787577 5.97593532 -13.625 5.875 C-18.72935666 5.78881011 -23.21676117 7.36027514 -28 9 C-28.99 9.33 -29.98 9.66 -31 10 C-31 9.01 -31 8.02 -31 7 C-29.35 6.34 -27.7 5.68 -26 5 C-26 4.34 -26 3.68 -26 3 C-31.22159274 4.435938 -35.670042 6.77578306 -40 10 C-40.33 10.66 -40.66 11.32 -41 12 C-41.66 12 -42.32 12 -43 12 C-40.7437466 6.20002657 -35.26827478 3.77489283 -30 1 C-19.87712688 -3.00989157 -10.37932921 -2.80793447 0 0 Z " fill="#56C0EC" transform="translate(822,243)"/>
<path d="M0 0 C4.0632939 0.07524618 6.2715858 0.36742977 9.375 3.0625 C11.52940928 6.95700908 11.85838379 9.53908954 12 14 C11.0625 16.5 11.0625 16.5 10 18 C9.34 17.34 8.68 16.68 8 16 C7.649375 16.66 7.29875 17.32 6.9375 18 C5 20 5 20 1.5 20.375 C-2 20 -2 20 -5 18 C-1.535 17.505 -1.535 17.505 2 17 C2.85387105 13.69432511 2.85387105 13.69432511 3 10 C1.29118236 7.62419982 1.29118236 7.62419982 -1 6 C-1.66 5.34 -2.32 4.68 -3 4 C-0.23723823 4.52268466 2.3260876 5.10869587 5 6 C5.99 7.485 5.99 7.485 7 9 C6.72382467 7.05925139 6.72382467 7.05925139 6 5 C3.08235 3.0549 1.37462715 2.54723683 -2 2 C-1.34 1.34 -0.68 0.68 0 0 Z " fill="#3EB4E7" transform="translate(816,258)"/>
<path d="M0 0 C2.1640625 0.00390625 2.1640625 0.00390625 5 1 C7.13409688 3.42923794 8.72242778 6.16633106 10.375 8.9375 C11.33557666 10.49191428 12.29781328 12.045304 13.26171875 13.59765625 C13.72626465 14.35320801 14.19081055 15.10875977 14.66943359 15.88720703 C16.89450111 19.42036929 19.36457911 22.76877847 21.85546875 26.1171875 C23 28 23 28 23 31 C17.38327679 26.87708615 13.93699115 21.97016983 10.125 16.1875 C9.53203125 15.30384766 8.9390625 14.42019531 8.328125 13.50976562 C6.87722733 11.3451199 5.43487717 9.17528399 4 7 C3.01 7.33 2.02 7.66 1 8 C0.26824885 10.07638672 0.26824885 10.07638672 -0.0625 12.5 C-0.47265625 14.96875 -0.47265625 14.96875 -1 17 C-1.66 17.33 -2.32 17.66 -3 18 C-2 12 -1 6 0 0 Z " fill="#F89A4D" transform="translate(268,18)"/>
<path d="M0 0 C0.66 0.33 1.32 0.66 2 1 C0.9790625 2.051875 0.9790625 2.051875 -0.0625 3.125 C-2.33133486 5.8644865 -2.33133486 5.8644865 -1.8125 9.1875 C-1.11477076 11.92162967 -1.11477076 11.92162967 0 14 C1.2375 13.71125 2.475 13.4225 3.75 13.125 C9.27889204 12.01603031 14.8335794 11.39335751 20.4375 10.8125 C21.32598633 10.71662598 22.21447266 10.62075195 23.12988281 10.52197266 C23.97260742 10.43866699 24.81533203 10.35536133 25.68359375 10.26953125 C26.44212646 10.19323486 27.20065918 10.11693848 27.98217773 10.03833008 C30 10 30 10 33 11 C33.76699219 10.68289063 34.53398438 10.36578125 35.32421875 10.0390625 C38.47993333 8.81363173 40.47493827 8.97288413 43.8125 9.375 C44.78832031 9.48585938 45.76414063 9.59671875 46.76953125 9.7109375 C47.50558594 9.80632813 48.24164063 9.90171875 49 10 C49 10.33 49 10.66 49 11 C48.0713916 11.11593506 47.1427832 11.23187012 46.18603516 11.35131836 C42.74538748 11.78263875 39.30518574 12.21722749 35.86523438 12.65405273 C34.37549148 12.84254353 32.88558229 13.02972479 31.39550781 13.21557617 C29.25540967 13.48273223 27.11595109 13.75457115 24.9765625 14.02734375 C23.04417725 14.27085571 23.04417725 14.27085571 21.07275391 14.51928711 C18.09543117 14.82578716 18.09543117 14.82578716 16 16 C13.11629667 16.07194869 10.25760336 16.09291708 7.375 16.0625 C6.57320312 16.05798828 5.77140625 16.05347656 4.9453125 16.04882812 C2.96350994 16.03703168 0.98174567 16.01909605 -1 16 C-3.67583041 11.08506797 -4.45981219 8.52643188 -3 3 C-1.4375 1.0625 -1.4375 1.0625 0 0 Z " fill="#F89949" transform="translate(28,585)"/>
<path d="M0 0 C1.40124266 2.80248531 0.71197774 4.89185752 -0.0703125 7.828125 C-1.7288545 11.7027021 -4.62021109 14.54002706 -8 17 C-10.2265625 17.69140625 -10.2265625 17.69140625 -12 18 C-12 17.34 -12 16.68 -12 16 C-12.763125 16.33 -13.52625 16.66 -14.3125 17 C-17 18 -17 18 -20 18 C-20 17.34 -20 16.68 -20 16 C-19.21625 15.773125 -18.4325 15.54625 -17.625 15.3125 C-14.78125 14.21875 -14.78125 14.21875 -13.6875 11.375 C-13.460625 10.59125 -13.23375 9.8075 -13 9 C-12.01 9.33 -11.02 9.66 -10 10 C-10 9.34 -10 8.68 -10 8 C-8.34614767 6.65080468 -6.678298 5.31866272 -5 4 C-4.34 3.01 -3.68 2.02 -3 1 C-2.01 0.67 -1.02 0.34 0 0 Z " fill="#32AEE3" transform="translate(839,295)"/>
<path d="M0 0 C1.24008711 3.72026132 0.58842971 4.90597827 -0.6953125 8.55859375 C-1.08203125 9.66783203 -1.46875 10.77707031 -1.8671875 11.91992188 C-2.48980469 13.66112305 -2.48980469 13.66112305 -3.125 15.4375 C-3.516875 16.56349609 -3.90875 17.68949219 -4.3125 18.84960938 C-6.20137238 24.21684641 -8.18049184 29.51031437 -10.41796875 34.7421875 C-12.48956797 39.62668558 -14.30544383 44.56410924 -16.04296875 49.57421875 C-16.30062012 50.31693527 -16.55827148 51.05965179 -16.82373047 51.82487488 C-17.88699077 54.90048366 -18.94512978 57.97779029 -19.99682617 61.05737305 C-20.77670753 63.33606304 -21.56546682 65.61152141 -22.35546875 67.88671875 C-22.59194626 68.58762131 -22.82842377 69.28852386 -23.07206726 70.01066589 C-24.77331044 74.88665522 -24.77331044 74.88665522 -27 76 C-25.00795118 68.22646204 -22.58536286 60.70178002 -19.83984375 53.1640625 C-19.25403282 51.54049332 -19.25403282 51.54049332 -18.65638733 49.88412476 C-17.42075648 46.46295515 -16.17912586 43.04399776 -14.9375 39.625 C-14.10053759 37.30872881 -13.26394571 34.9923237 -12.42773438 32.67578125 C-10.89787811 28.4440522 -9.36790515 24.21237061 -7.83178711 19.98291016 C-7.52550888 19.13894684 -7.21923065 18.29498352 -6.90367126 17.42544556 C-6.26855415 15.72079692 -5.58313526 14.03446134 -4.86207581 12.36434937 C-3.82103472 9.5091656 -4.17695361 7.88066237 -5 5 C-4.01 4.67 -3.02 4.34 -2 4 C-0.79117904 1.99983534 -0.79117904 1.99983534 0 0 Z " fill="#88D6F4" transform="translate(658,356)"/>
<path d="M0 0 C0.495 1.485 0.495 1.485 1 3 C0.67 3.66 0.34 4.32 0 5 C-19.47 5 -38.94 5 -59 5 C-58.67 3.68 -58.34 2.36 -58 1 C-57.67 1.66 -57.34 2.32 -57 3 C-38.52 2.67 -20.04 2.34 -1 2 C-0.67 1.34 -0.34 0.68 0 0 Z " fill="#1FA7E1" transform="translate(595,525)"/>
<path d="M0 0 C0.66 0.33 1.32 0.66 2 1 C1.5875 2.093125 1.175 3.18625 0.75 4.3125 C-3.12966645 14.67875038 -6.76251055 25.10118968 -10.15820312 35.63671875 C-11.85992455 40.85065286 -13.74657726 45.84346346 -16.03833008 50.82519531 C-17.66014142 54.49290169 -18.94776251 58.27205874 -20.25 62.0625 C-20.518125 62.83271484 -20.78625 63.60292969 -21.0625 64.39648438 C-21.71176859 66.26313158 -22.35639263 68.13139328 -23 70 C-24.04479554 66.8173882 -23.95881325 65.03111773 -22.84423828 61.88989258 C-22.56709991 61.09259232 -22.28996155 60.29529205 -22.00442505 59.47383118 C-21.54203934 58.19707771 -21.54203934 58.19707771 -21.0703125 56.89453125 C-20.60563065 55.57481575 -20.60563065 55.57481575 -20.13156128 54.22843933 C-19.47565081 52.37164048 -18.81464345 50.51663536 -18.14892578 48.66333008 C-17.1263771 45.81633415 -16.11848628 42.96448831 -15.11328125 40.11132812 C-14.47480207 38.30959662 -13.83550713 36.50815393 -13.1953125 34.70703125 C-12.89110382 33.84978958 -12.58689514 32.99254791 -12.27346802 32.10932922 C-10.11794768 26.11794768 -10.11794768 26.11794768 -9 25 C-8.95919217 23.00041636 -8.95745644 20.99954746 -9 19 C-8.34 18.67 -7.68 18.34 -7 18 C-6.855625 16.88625 -6.71125 15.7725 -6.5625 14.625 C-5.94760151 10.66232081 -5.62992249 10.57104363 -3 8 C-2.01371583 5.96922316 -2.01371583 5.96922316 -1.3125 3.8125 C-1.06113281 3.09707031 -0.80976563 2.38164062 -0.55078125 1.64453125 C-0.36902344 1.10183594 -0.18726563 0.55914062 0 0 Z " fill="#8DD9F4" transform="translate(303,366)"/>
<path d="M0 0 C1 3 1 3 -3 14 C9.54 14 22.08 14 35 14 C35.99 10.7 36.98 7.4 38 4 C39 7 39 7 36 16 C22.47 16 8.94 16 -5 16 C-2 5 -2 5 0 0 Z " fill="#7ACDEF" transform="translate(209,516)"/>
<path d="M0 0 C0.33 0.99 0.66 1.98 1 3 C-0.41519715 5.0343459 -1.54982123 5.90410393 -3.98046875 6.421875 C-5.98176954 6.66273952 -7.9909944 6.83532741 -10 7 C-10 7.99 -10 8.98 -10 10 C-10.78117188 9.76990234 -10.78117188 9.76990234 -11.578125 9.53515625 C-14.63278515 8.86017489 -17.63015971 8.65588882 -20.75 8.4375 C-21.92046875 8.35371094 -23.0909375 8.26992188 -24.296875 8.18359375 C-25.63492188 8.09271484 -25.63492188 8.09271484 -27 8 C-26.67 6.35 -26.34 4.7 -26 3 C-13.23587067 2.82725239 -13.23587067 2.82725239 -8.9375 3.5625 C-6.15056588 3.97757529 -4.56052186 4.13800972 -2 3 C-1.34 2.01 -0.68 1.02 0 0 Z " fill="#22A8E2" transform="translate(824,273)"/>
<path d="M0 0 C0.99 0.99 1.98 1.98 3 3 C1.68 6.63 0.36 10.26 -1 14 C-1.66 14 -2.32 14 -3 14 C-3.52980469 15.7325 -3.52980469 15.7325 -4.0703125 17.5 C-6.27963006 24.12018251 -9.12537316 30.47430445 -11.93310547 36.85644531 C-12.87182163 38.9927667 -13.80151028 41.13285807 -14.73046875 43.2734375 C-17.82955378 50.37084317 -21.01035836 57.34674701 -25 64 C-26 61 -26 61 -25.40185547 59.19189453 C-25.06041504 58.51239746 -24.71897461 57.83290039 -24.3671875 57.1328125 C-23.97909912 56.34310059 -23.59101074 55.55338867 -23.19116211 54.73974609 C-22.75682861 53.87687988 -22.32249512 53.01401367 -21.875 52.125 C-17.37763126 42.95296162 -13.10517673 33.6998897 -8.9375 24.375 C-8.64864929 23.73113342 -8.35979858 23.08726685 -8.06219482 22.42388916 C-4.78854104 15.30826142 -4.78854104 15.30826142 -2 8 C-1.34 8 -0.68 8 0 8 C0 5.36 0 2.72 0 0 Z " fill="#FBC290" transform="translate(165,237)"/>
<path d="M0 0 C3 1 3 1 6 3 C3.03 3.99 0.06 4.98 -3 6 C-3 6.99 -3 7.98 -3 9 C-4.093125 9.391875 -5.18625 9.78375 -6.3125 10.1875 C-9.91074922 11.7025523 -11.34524223 13.39846838 -13 17 C-15 16 -15 16 -15.6875 14.0625 C-16 12 -16 12 -15 10 C-14.34 10 -13.68 10 -13 10 C-12.67 9.01 -12.34 8.02 -12 7 C-9.78515625 5.4296875 -9.78515625 5.4296875 -7.0625 3.875 C-6.16660156 3.35679687 -5.27070312 2.83859375 -4.34765625 2.3046875 C-2.91393472 1.50791048 -1.46708174 0.73354087 0 0 Z " fill="#26AAE1" transform="translate(794,245)"/>
<path d="M0 0 C0.02703562 2.58340384 0.04685611 5.16652308 0.0625 7.75 C0.07087891 8.47960937 0.07925781 9.20921875 0.08789062 9.9609375 C0.10391684 13.48670558 -0.04707287 16.61034916 -1 20 C-1.66 20 -2.32 20 -3 20 C-3 25.61 -3 31.22 -3 37 C-3.66 37 -4.32 37 -5 37 C-5.25402793 8.22840625 -5.25402793 8.22840625 -4 1 C-2 0 -2 0 0 0 Z " fill="#42B4E5" transform="translate(798,262)"/>
<path d="M0 0 C2.68777802 -0.0544207 5.37443212 -0.09387266 8.0625 -0.125 C8.81466797 -0.14175781 9.56683594 -0.15851563 10.34179688 -0.17578125 C15.92371964 -0.22410959 21.05747896 0.19651936 25.9375 3.1875 C27.61454601 6.04834319 27.18290199 8.76873158 27 12 C25.79371992 9.66785852 24.8345262 7.50357861 24 5 C16.34916042 3.75088333 8.72559014 3.90946574 1 4 C0.67 2.68 0.34 1.36 0 0 Z " fill="#26AAE2" transform="translate(797,259)"/>
<path d="M0 0 C0.66 0.33 1.32 0.66 2 1 C0.70910257 2.4590143 -0.58274439 3.91718851 -1.875 5.375 C-2.59429688 6.18710937 -3.31359375 6.99921875 -4.0546875 7.8359375 C-5.33295938 9.25795079 -6.64794586 10.64794586 -8 12 C-8 11.34 -8 10.68 -8 10 C-9.98 10.33 -11.96 10.66 -14 11 C-15.485 17.435 -15.485 17.435 -17 24 C-17.66 24 -18.32 24 -19 24 C-18.58411954 17.80481527 -17.39748106 12.73310689 -15 7 C-14.34 7 -13.68 7 -13 7 C-12.566875 5.7934375 -12.566875 5.7934375 -12.125 4.5625 C-11 2 -11 2 -9 1 C-8.67 2.98 -8.34 4.96 -8 7 C-5.75587501 6.1081298 -5.75587501 6.1081298 -4.5625 3.5 C-3 1 -3 1 0 0 Z " fill="#4EBAE9" transform="translate(788,254)"/>
<path d="M0 0 C1.79158489 -0.02696365 3.58328473 -0.04637917 5.375 -0.0625 C6.37273438 -0.07410156 7.37046875 -0.08570313 8.3984375 -0.09765625 C11 0 11 0 13 1 C15.3329866 1.04022391 17.66706666 1.04320247 20 1 C20 1.66 20 2.32 20 3 C20.66 3 21.32 3 22 3 C21.67 4.32 21.34 5.64 21 7 C19.26969709 6.71515154 17.54079286 6.42180062 15.8125 6.125 C14.84957031 5.96257812 13.88664063 5.80015625 12.89453125 5.6328125 C10.08967396 5.01960483 7.62775253 4.14333657 5 3 C4.67 3.33 4.34 3.66 4 4 C2.00041636 4.04080783 -0.00045254 4.04254356 -2 4 C-0.68 3.34 0.64 2.68 2 2 C1.34 1.34 0.68 0.68 0 0 Z " fill="#21A7E0" transform="translate(803,243)"/>
<path d="M0 0 C0.99 0.33 1.98 0.66 3 1 C1.66666667 5 0.33333333 9 -1 13 C-1.21331139 16.76850119 -1.13613965 19.59158105 0.0625 23.1875 C1 26 1 26 0 30 C-0.99 27.36 -1.98 24.72 -3 22 C-3.33 22 -3.66 22 -4 22 C-4.22295635 19.60472566 -4.42874063 17.20998659 -4.625 14.8125 C-4.68945312 14.13896484 -4.75390625 13.46542969 -4.8203125 12.77148438 C-5.1420921 8.64868327 -5.05778908 5.63100203 -3 2 C-2.01 1.34 -1.02 0.68 0 0 Z " fill="#22A8E1" transform="translate(777,263)"/>
<path d="M0 0 C0.33 0 0.66 0 1 0 C1 2.31 1 4.62 1 7 C0.67 7 0.34 7 0 7 C0 4.69 0 2.38 0 0 Z M-1 7 C-0.67 7 -0.34 7 0 7 C0.03758423 8.3597998 0.03758423 8.3597998 0.07592773 9.74707031 C0.17209675 13.16903001 0.27125287 16.5908779 0.37231445 20.01269531 C0.41514455 21.48271396 0.45684581 22.95276601 0.49731445 24.42285156 C0.74278817 33.30839413 1.13502065 42.14855483 2 51 C-2.26636966 46.73363034 -2.12508224 39.68301349 -2.23046875 33.93359375 C-2.22652926 31.76818538 -2.21203201 29.60277299 -2.1875 27.4375 C-2.18685547 26.35275391 -2.18621094 25.26800781 -2.18554688 24.15039062 C-2.15382258 18.34484377 -1.86982109 12.7408192 -1 7 Z " fill="#F47B15" transform="translate(80,484)"/>
<path d="M0 0 C0.66 0 1.32 0 2 0 C2.33 0.66 2.66 1.32 3 2 C3.99 2.33 4.98 2.66 6 3 C7.31860352 4.6105957 7.31860352 4.6105957 8.62890625 6.67578125 C9.10650391 7.42150391 9.58410156 8.16722656 10.07617188 8.93554688 C10.56666016 9.71994141 11.05714844 10.50433594 11.5625 11.3125 C12.05685547 12.08529297 12.55121094 12.85808594 13.06054688 13.65429688 C15.21190958 17.04000029 17.25215436 20.38549364 19 24 C12.81016996 20.15965148 9.42923685 15.86303442 5.5625 9.75 C4.75135742 8.50863281 4.75135742 8.50863281 3.92382812 7.2421875 C0 1.19026549 0 1.19026549 0 0 Z " fill="#F69440" transform="translate(273,25)"/>
<path d="M0 0 C0.33 0.66 0.66 1.32 1 2 C0.01370702 4.60429024 -1.03260176 7.0965937 -2.1875 9.625 C-2.51266602 10.35195068 -2.83783203 11.07890137 -3.17285156 11.82788086 C-5.32851284 16.61686614 -7.61737045 21.3198348 -10 26 C-11.03695938 28.31974964 -12.02258778 30.65421068 -13 33 C-13.33 33 -13.66 33 -14 33 C-14.14214073 25.32440075 -11.38730413 20.77460826 -8 14 C-7.34 14 -6.68 14 -6 14 C-5.81824219 13.40832031 -5.63648438 12.81664062 -5.44921875 12.20703125 C-4.04332943 7.787492 -2.62472819 3.87459875 0 0 Z " fill="#F9A861" transform="translate(224,356)"/>
<path d="M0 0 C0.33 0 0.66 0 1 0 C1.11597981 6.80414883 0.99672649 13.58132358 0.625 20.375 C0.55539063 21.68210937 0.48578125 22.98921875 0.4140625 24.3359375 C0.01948915 27.82753943 -0.75350707 30.72668929 -2 34 C-2.66 34 -3.32 34 -4 34 C-3.41691197 26.45054451 -2.72774918 18.91172709 -2 11.375 C-1.9170166 10.48586914 -1.8340332 9.59673828 -1.74853516 8.68066406 C-1.62551025 7.42721191 -1.62551025 7.42721191 -1.5 6.1484375 C-1.4278125 5.39739746 -1.355625 4.64635742 -1.28125 3.87255859 C-1 2 -1 2 0 0 Z " fill="#FAB980" transform="translate(104,351)"/>
<path d="M0 0 C5.75 0.875 5.75 0.875 8 2 C10.86604819 2.12614132 13.69612269 2.18979356 16.5625 2.1875 C17.3757373 2.18814453 18.18897461 2.18878906 19.02685547 2.18945312 C24.61632213 2.14019686 29.61634343 1.5951575 35 0 C32.31297823 3.47732229 29.18294348 4.08524953 25 5 C22.32485463 5.20806686 19.79374698 5.33308821 17.125 5.3125 C16.42826172 5.31121094 15.73152344 5.30992187 15.01367188 5.30859375 C9.43935688 5.20488556 5.09205324 4.18230853 0 2 C0 1.34 0 0.68 0 0 Z " fill="#5EC2EB" transform="translate(791,313)"/>
<path d="M0 0 C1.26092972 0.00212242 1.26092972 0.00212242 2.54733276 0.00428772 C5.23732025 0.00989388 7.92722509 0.02244739 10.6171875 0.03515625 C12.43880088 0.04017046 14.26041557 0.0447335 16.08203125 0.04882812 C20.55211527 0.05986531 25.02213736 0.07713405 29.4921875 0.09765625 C30.58678483 3.79405345 30.25119976 5.3518128 28.5546875 8.84765625 C27.98427734 10.04648437 27.98427734 10.04648437 27.40234375 11.26953125 C27.10199219 11.8728125 26.80164063 12.47609375 26.4921875 13.09765625 C25.35574784 9.68833728 25.62470986 9.09430169 26.9296875 5.91015625 C27.36087891 4.83701172 27.36087891 4.83701172 27.80078125 3.7421875 C28.02894531 3.19949219 28.25710938 2.65679687 28.4921875 2.09765625 C23.11671159 2.19105695 17.74169329 2.29711975 12.36669922 2.41503906 C10.53734221 2.45337402 8.70790865 2.48821888 6.87841797 2.51953125 C4.25199991 2.5650843 1.62611091 2.62309356 -1 2.68359375 C-2.23132156 2.70092056 -2.23132156 2.70092056 -3.48751831 2.71859741 C-7.9702769 2.65491065 -7.9702769 2.65491065 -11.5078125 5.09765625 C-11.1328125 3.16015625 -11.1328125 3.16015625 -10.5078125 1.09765625 C-7.22889325 -0.54180338 -3.60167716 -0.02264553 0 0 Z " fill="#9ADFF7" transform="translate(295.5078125,305.90234375)"/>
<path d="M0 0 C-0.33 0.66 -0.66 1.32 -1 2 C0.32 1.67 1.64 1.34 3 1 C3 1.66 3 2.32 3 3 C5.31 3.33 7.62 3.66 10 4 C7.27123183 4.90958939 5.30212423 4.97593532 2.375 4.875 C-2.72935666 4.78881011 -7.21676117 6.36027514 -12 8 C-12.99 8.33 -13.98 8.66 -15 9 C-15 8.01 -15 7.02 -15 6 C-13.35 5.34 -11.7 4.68 -10 4 C-10 2.68 -10 1.36 -10 0 C-6.30458414 -0.95024979 -3.69541586 -0.95024979 0 0 Z " fill="#3AB3E5" transform="translate(806,244)"/>
<path d="M0 0 C0.66 1.32 1.32 2.64 2 4 C2.66 4 3.32 4 4 4 C4 3.01 4 2.02 4 1 C4.66 1 5.32 1 6 1 C6 6.61 6 12.22 6 18 C6.33 18 6.66 18 7 18 C7 19.98 7 21.96 7 24 C6.34 24 5.68 24 5 24 C4.34 24.66 3.68 25.32 3 26 C3.03480469 25.01 3.06960938 24.02 3.10546875 23 C3.28281611 15.70289508 3.11007763 9.73850152 0 3 C0 2.01 0 1.02 0 0 Z " fill="#23A8E1" transform="translate(837,263)"/>
<path d="M0 0 C-2.91765 1.9451 -4.62537285 2.45276317 -8 3 C-8 3.33 -8 3.66 -8 4 C-15.09434233 4.09733092 -21.98194143 4.10087193 -29 3 C-26.40464924 0.40464924 -25.02620382 0.61366548 -21.40625 0.33203125 C-20.29378906 0.24373047 -19.18132812 0.15542969 -18.03515625 0.06445312 C-16.86855469 -0.01869141 -15.70195313 -0.10183594 -14.5 -0.1875 C-13.33339844 -0.28224609 -12.16679688 -0.37699219 -10.96484375 -0.47460938 C-2.26918543 -1.13459271 -2.26918543 -1.13459271 0 0 Z " fill="#F79D4E" transform="translate(94,575)"/>
<path d="M0 0 C0.66 0.66 1.32 1.32 2 2 C1.67 2.66 1.34 3.32 1 4 C0.34 4 -0.32 4 -1 4 C-1.26876953 4.86584717 -1.53753906 5.73169434 -1.81445312 6.6237793 C-3.80594181 12.29517491 -6.7214463 17.49346824 -9.5 22.8125 C-10.39138672 24.54790039 -10.39138672 24.54790039 -11.30078125 26.31835938 C-12.15736328 27.96481445 -12.15736328 27.96481445 -13.03125 29.64453125 C-13.55267578 30.64846924 -14.07410156 31.65240723 -14.61132812 32.68676758 C-16 35 -16 35 -18 36 C-16.69387635 31.77031073 -15.07659464 27.9903304 -12.99609375 24.0859375 C-12.42052734 22.99539063 -11.84496094 21.90484375 -11.25195312 20.78125 C-10.65318359 19.6571875 -10.05441406 18.533125 -9.4375 17.375 C-8.24474333 15.13491368 -7.05577014 12.89280758 -5.87109375 10.6484375 C-5.08109985 9.16609619 -5.08109985 9.16609619 -4.27514648 7.65380859 C-2.94533632 5.12290624 -2.94533632 5.12290624 -2.44555664 2.70947266 C-2.2250061 1.86328369 -2.2250061 1.86328369 -2 1 C-1.34 0.67 -0.68 0.34 0 0 Z " fill="#FABA7E" transform="translate(271,264)"/>
<path d="M0 0 C1 3 1 3 0 6 C-0.30068731 13.03962061 -0.32104805 20.06449774 1 27 C-1.63998971 25.68000515 -1.70014976 24.63086688 -2.625 21.875 C-4.98452633 14.24265462 -4.0085949 8.26427576 -1 1 C-0.67 0.67 -0.34 0.34 0 0 Z " fill="#6ECBEF" transform="translate(779,266)"/>
<path d="M0 0 C4.10630656 1.44928467 7.47928728 3.49040106 11 6 C11.93328125 6.66128906 12.8665625 7.32257813 13.828125 8.00390625 C19.70849562 12.21817186 19.70849562 12.21817186 22 14 C22 14.33 22 14.66 22 15 C17.64038971 15.39982317 15.77827781 14.51558302 12.4375 11.75 C11.69371094 11.14671875 10.94992188 10.5434375 10.18359375 9.921875 C8.69702105 8.61347827 7.2572174 7.25042779 5.86328125 5.84375 C4.00219395 4.00217095 2.39038299 3.02444985 0 2 C0 1.34 0 0.68 0 0 Z " fill="#F68D38" transform="translate(78,158)"/>
<path d="M0 0 C2.9375 1.3125 2.9375 1.3125 6 3 C6.33 3.99 6.66 4.98 7 6 C6.34 6 5.68 6 5 6 C6.1858237 9.37503669 7.27573689 11.64722731 10 14 C9.67 14.66 9.34 15.32 9 16 C8.50371094 15.52949219 8.00742187 15.05898438 7.49609375 14.57421875 C3.18594947 10.62393472 -0.48317233 7.95387647 -6 6 C-3.50935112 5.31292445 -1.62113708 5 1 5 C1.33 4.01 1.66 3.02 2 2 C1.34 2 0.68 2 0 2 C0 1.34 0 0.68 0 0 Z " fill="#3AB2E5" transform="translate(823,244)"/>
<path d="M0 0 C-4.79872101 2.23940314 -9.82855847 3.0560864 -15 4 C-15 4.33 -15 4.66 -15 5 C-18.63 5 -22.26 5 -26 5 C-25.67 4.34 -25.34 3.68 -25 3 C-22.0859375 2.18359375 -22.0859375 2.18359375 -18.375 1.4375 C-17.16585937 1.18871094 -15.95671875 0.93992187 -14.7109375 0.68359375 C-3.72340426 -1.34042553 -3.72340426 -1.34042553 0 0 Z " fill="#F9AD6A" transform="translate(61,578)"/>
<path d="M0 0 C1.21228667 3.63686002 0.66402261 4.69773532 -0.58203125 8.25390625 C-1.11473633 9.78241211 -1.11473633 9.78241211 -1.65820312 11.34179688 C-2.03912109 12.40462891 -2.42003906 13.46746094 -2.8125 14.5625 C-3.36647461 16.16254883 -3.36647461 16.16254883 -3.93164062 17.79492188 C-6.73120261 25.73120261 -6.73120261 25.73120261 -9 28 C-8.50411104 22.42124919 -6.88962773 17.81710399 -4.7421875 12.6484375 C-3.90938807 9.67665847 -4.16260494 7.9361827 -5 5 C-4.01 4.67 -3.02 4.34 -2 4 C-0.79117904 1.99983534 -0.79117904 1.99983534 0 0 Z " fill="#87D6F3" transform="translate(658,356)"/>
<path d="M0 0 C0.73046875 1.55859375 0.73046875 1.55859375 1 4 C-0.13871345 6.47456849 -1.31733263 8.72347075 -2.6875 11.0625 C-6.13470113 17.1949447 -8.8739269 23.27209762 -11 30 C-11.66 30 -12.32 30 -13 30 C-9.67247076 19.49201293 -5.63413901 9.4941236 0 0 Z " fill="#FBC18C" transform="translate(166,264)"/>
<path d="M0 0 C1.32 0.33 2.64 0.66 4 1 C4 1.66 4 2.32 4 3 C8.455 3.99 8.455 3.99 13 5 C12.01 5.66 11.02 6.32 10 7 C9.9254644 8.2236068 9.9254644 8.2236068 11 10 C6.36108575 9.72712269 4.2649533 7.70642674 1.13671875 4.5703125 C0 3 0 3 0 0 Z " fill="#F7984D" transform="translate(0,123)"/>
<path d="M0 0 C2.88792788 2.40660657 3.9311897 3.72967381 4.875 7.4375 C6.34655902 12.09743691 8.10963266 13.16327382 12 16 C12.66 16.66 13.32 17.32 14 18 C9.60469719 17.51163302 7.9781 16.17023548 5 13 C3.97326172 12.58041016 3.97326172 12.58041016 2.92578125 12.15234375 C1 11 1 11 0.390625 8.90625 C0.32101562 7.71515625 0.32101562 7.71515625 0.25 6.5 C0.19328125 5.7059375 0.1365625 4.911875 0.078125 4.09375 C0.02723386 2.72986733 0 1.3648318 0 0 Z " fill="#22A8E1" transform="translate(778,294)"/>
<path d="M0 0 C1.7544116 2.6316174 2.58158544 4.42768044 3.5078125 7.37890625 C3.77207031 8.21744141 4.03632813 9.05597656 4.30859375 9.91992188 C4.57800781 10.79197266 4.84742188 11.66402344 5.125 12.5625 C5.40214844 13.43841797 5.67929687 14.31433594 5.96484375 15.21679688 C8 21.72829433 8 21.72829433 8 24 C7.34 24 6.68 24 6 24 C5.49440092 22.56445975 4.9957251 21.1264798 4.5 19.6875 C4.08234375 18.48673828 4.08234375 18.48673828 3.65625 17.26171875 C3 15 3 15 3 12 C2.34 12 1.68 12 1 12 C-0.47075246 7.58774263 -1.36884358 4.51718381 0 0 Z " fill="#F9A867" transform="translate(315,93)"/>
<path d="M0 0 C2.02408755 0.09002398 4.04544287 0.24641038 6.0625 0.4375 C7.16722656 0.53933594 8.27195312 0.64117188 9.41015625 0.74609375 C10.26480469 0.82988281 11.11945313 0.91367187 12 1 C12 1.33 12 1.66 12 2 C3.92046224 3.81344335 -3.73252149 4.23658921 -12 4 C-12 3.67 -12 3.34 -12 3 C-10.82630859 2.80083984 -10.82630859 2.80083984 -9.62890625 2.59765625 C-8.61699219 2.42105469 -7.60507812 2.24445312 -6.5625 2.0625 C-5.55316406 1.88847656 -4.54382812 1.71445312 -3.50390625 1.53515625 C-1.0712562 1.25248903 -1.0712562 1.25248903 0 0 Z M-17 4 C-15.35 4 -13.7 4 -12 4 C-12 4.33 -12 4.66 -12 5 C-13.65 5 -15.3 5 -17 5 C-17 4.67 -17 4.34 -17 4 Z " fill="#F47D17" transform="translate(61,577)"/>
<path d="M0 0 C1.22579632 3.49131268 0.77794849 5.39853529 -0.546875 8.80859375 C-0.8975 9.72060547 -1.248125 10.63261719 -1.609375 11.57226562 C-1.98578125 12.51779297 -2.3621875 13.46332031 -2.75 14.4375 C-3.29140625 15.84999023 -3.29140625 15.84999023 -3.84375 17.29101562 C-5.58487346 21.76053002 -7.31356561 25.99585254 -10 30 C-11 28 -11 28 -10.46875 26.25 C-9.98921875 25.13625 -9.98921875 25.13625 -9.5 24 C-7.3312768 18.82255519 -5.27564946 13.60963978 -3.25 8.375 C-2.63029921 6.77861055 -2.01051431 5.18225375 -1.390625 3.5859375 C-0.93171875 2.40257812 -0.4728125 1.21921875 0 0 Z " fill="#FBC18E" transform="translate(258,57)"/>
<path d="M0 0 C3 0.125 3 0.125 4 1.125 C4.99 0.795 5.98 0.465 7 0.125 C9.33299825 0.08545766 11.66708189 0.08098268 14 0.125 C10.24031213 2.38277601 6.19180533 2.99946549 1.9375 3.75 C1.21755859 3.8840625 0.49761719 4.018125 -0.24414062 4.15625 C-3.20491669 4.69507276 -5.9844408 5.125 -9 5.125 C-9 4.465 -9 3.805 -9 3.125 C-8.195625 2.815625 -7.39125 2.50625 -6.5625 2.1875 C-1.43051771 0.0596049 -1.43051771 0.0596049 0 0 Z " fill="#F9A757" transform="translate(181,575.875)"/>
<path d="M0 0 C0.66 0.33 1.32 0.66 2 1 C-0.31 7.27 -2.62 13.54 -5 20 C-5.66 20 -6.32 20 -7 20 C-7.33 20.99 -7.66 21.98 -8 23 C-8.33 21.68 -8.66 20.36 -9 19 C-8.34 18.67 -7.68 18.34 -7 18 C-6.7834375 16.329375 -6.7834375 16.329375 -6.5625 14.625 C-5.94760151 10.66232081 -5.62992249 10.57104363 -3 8 C-2.01371583 5.96922316 -2.01371583 5.96922316 -1.3125 3.8125 C-1.06113281 3.09707031 -0.80976563 2.38164062 -0.55078125 1.64453125 C-0.36902344 1.10183594 -0.18726563 0.55914062 0 0 Z " fill="#6CC9EE" transform="translate(303,366)"/>
<path d="M0 0 C0.66 0.66 1.32 1.32 2 2 C1.40266451 4.04367572 0.79680343 6.08486043 0.1875 8.125 C-0.31716797 9.83042969 -0.31716797 9.83042969 -0.83203125 11.5703125 C-1.96571636 14.89932763 -3.354202 17.89703414 -5 21 C-5.33 21 -5.66 21 -6 21 C-5.55355616 13.41045469 -2.88499438 6.98360263 0 0 Z " fill="#1FA7E1" transform="translate(554,309)"/>
<path d="M0 0 C2.94035425 0.42261972 5.87634921 0.862335 8.8125 1.3125 C9.64587891 1.43044922 10.47925781 1.54839844 11.33789062 1.66992188 C12.14033203 1.79560547 12.94277344 1.92128906 13.76953125 2.05078125 C14.50792236 2.16075439 15.24631348 2.27072754 16.00708008 2.3840332 C18.36300543 3.11219683 19.41236109 4.14885256 21 6 C19.12103736 5.7608593 17.24209916 5.52152511 15.36328125 5.28125 C13.77978435 5.09280078 12.19352689 4.92632546 10.60546875 4.78125 C9.82816406 4.7090625 9.05085937 4.636875 8.25 4.5625 C7.17492187 4.47162109 7.17492187 4.47162109 6.078125 4.37890625 C3.77073508 3.95819794 2.0410958 3.13547447 0 2 C0 1.34 0 0.68 0 0 Z " fill="#FAA55D" transform="translate(229,542)"/>
<path d="M0 0 C0.87840996 3.09720845 0.99435406 4.90645403 0 8 C-0.66 8 -1.32 8 -2 8 C-2.27585938 8.71542969 -2.55171875 9.43085938 -2.8359375 10.16796875 C-3.98248522 12.95738855 -5.26227115 15.62290358 -6.625 18.3125 C-7.29402344 19.63701172 -7.29402344 19.63701172 -7.9765625 20.98828125 C-8.48316406 21.98408203 -8.48316406 21.98408203 -9 23 C-10 21 -10 21 -9.43359375 19.2578125 C-9.10488281 18.55398438 -8.77617187 17.85015625 -8.4375 17.125 C-8.07011719 16.33480469 -7.70273438 15.54460937 -7.32421875 14.73046875 C-4.93104121 9.79586373 -2.48237646 4.89028162 0 0 Z " fill="#FBBD83" transform="translate(149,301)"/>
<path d="M0 0 C0.99 0.33 1.98 0.66 3 1 C2.01773438 1.58201172 2.01773438 1.58201172 1.015625 2.17578125 C-1.23981033 3.83325291 -1.23981033 3.83325291 -1.390625 6.48046875 C-1.34421875 7.37378906 -1.2978125 8.26710938 -1.25 9.1875 C-1.21390625 10.08855469 -1.1778125 10.98960937 -1.140625 11.91796875 C-1.09421875 12.60503906 -1.0478125 13.29210937 -1 14 C0.65 14 2.3 14 4 14 C4 14.33 4 14.66 4 15 C2.02 15 0.04 15 -2 15 C-5.01921317 9.80695334 -5.01921317 9.80695334 -4.9375 6.375 C-3.81039446 3.51966596 -2.29706574 2.00067016 0 0 Z " fill="#F47913" transform="translate(30,585)"/>
<path d="M0 0 C0.97961897 2.93885692 1.03775226 4.05758525 0.66015625 7.01171875 C0.56669922 7.76904297 0.47324219 8.52636719 0.37695312 9.30664062 C0.27318359 10.09232422 0.16941406 10.87800781 0.0625 11.6875 C-0.03740234 12.48478516 -0.13730469 13.28207031 -0.24023438 14.10351562 C-0.48748847 16.06977435 -0.74295637 18.03499706 -1 20 C-1.66 20 -2.32 20 -3 20 C-3.24692314 13.42910088 -2.97136251 7.31699374 -1 1 C-0.67 0.67 -0.34 0.34 0 0 Z " fill="#FAB26E" transform="translate(187,462)"/>
<path d="M0 0 C2.19050021 0.09017996 4.378466 0.24666208 6.5625 0.4375 C7.76003906 0.53933594 8.95757812 0.64117188 10.19140625 0.74609375 C11.11824219 0.82988281 12.04507813 0.91367187 13 1 C13 1.33 13 1.66 13 2 C9.4184073 2.53330505 5.83454729 3.04946167 2.25 3.5625 C0.72632812 3.78969727 0.72632812 3.78969727 -0.828125 4.02148438 C-1.8078125 4.16005859 -2.7875 4.29863281 -3.796875 4.44140625 C-5.14797363 4.63778687 -5.14797363 4.63778687 -6.52636719 4.83813477 C-8.95968635 4.99736203 -10.69214003 4.73710222 -13 4 C-12.14535156 3.79503906 -11.29070313 3.59007812 -10.41015625 3.37890625 C-9.30542969 3.10949219 -8.20070313 2.84007812 -7.0625 2.5625 C-5.40927734 2.16224609 -5.40927734 2.16224609 -3.72265625 1.75390625 C-1.10578746 1.27004275 -1.10578746 1.27004275 0 0 Z " fill="#F8A762" transform="translate(64,594)"/>
<path d="M0 0 C1.44259435 4.32778305 0.3878241 7.72753627 -1 12 C-2.17901298 14.20560604 -3.46767795 16.00798133 -5 18 C-6.66201898 13.94507418 -5.20927166 11.22066185 -3.625 7.3125 C-3.16351563 6.15363281 -2.70203125 4.99476563 -2.2265625 3.80078125 C-1 1 -1 1 0 0 Z " fill="#1EA6E0" transform="translate(260,381)"/>
<path d="M0 0 C0 3 0 3 -1.375 4.6875 C-3 6 -3 6 -5 6 C-5 6.66 -5 7.32 -5 8 C-8.77545388 6.90931332 -11.47043472 6.0916909 -14 3 C-13.67 2.34 -13.34 1.68 -13 1 C-12.34 1.66 -11.68 2.32 -11 3 C-9.01178687 3.39764263 -7.01055661 3.73775349 -5 4 C-5 3.34 -5 2.68 -5 2 C-4.360625 1.855625 -3.72125 1.71125 -3.0625 1.5625 C-1.02454854 1.18992819 -1.02454854 1.18992819 0 0 Z " fill="#83CEF1" transform="translate(834,297)"/>
<path d="M0 0 C0.99 0.33 1.98 0.66 3 1 C4.0625 3.80078125 4.0625 3.80078125 5 7.3125 C6.13385488 11.53138502 7.11330095 14.67865593 10 18 C9.67 18.66 9.34 19.32 9 20 C4.75436124 14.31166846 0 7.44167714 0 0 Z " fill="#7BD3F3" transform="translate(769,284)"/>
<path d="M0 0 C4.54109672 4.26587874 8.24735246 9.03612328 12 14 C11.01 14.495 11.01 14.495 10 15 C9 14 8 13 7 12 C6.154375 11.2575 5.30875 10.515 4.4375 9.75 C1.496332 6.43175918 0.92107397 4.27043385 0 0 Z " fill="#F89A4A" transform="translate(151,219)"/>
<path d="M0 0 C0.66 0 1.32 0 2 0 C1.51328962 7.13841895 -0.86366366 15.86366366 -6 21 C-4.55613874 13.78069368 -2.42211826 6.94889267 0 0 Z " fill="#90D9F5" transform="translate(287,483)"/>
<path d="M0 0 C0.99 0 1.98 0 3 0 C5.61407872 5.36190101 7.49228528 10.03435204 8 16 C5.70351643 13.10414095 3.95652443 10.1827969 2.3125 6.875 C1.65701172 5.57175781 1.65701172 5.57175781 0.98828125 4.2421875 C0 2 0 2 0 0 Z " fill="#F79848" transform="translate(75,219)"/>
<path d="M0 0 C2.64 0.33 5.28 0.66 8 1 C5.63699651 3.36300349 4.4201502 3.51433444 1.1875 4.125 C-0.09060547 4.37636719 -0.09060547 4.37636719 -1.39453125 4.6328125 C-3.96843811 4.995552 -6.40461588 5.06523407 -9 5 C-9 4.34 -9 3.68 -9 3 C-4.545 2.505 -4.545 2.505 0 2 C0 1.34 0 0.68 0 0 Z " fill="#FAB266" transform="translate(163,579)"/>
<path d="M0 0 C0 0.66 0 1.32 0 2 C-5.22512279 3.46670113 -9.5814234 4.22577402 -15 4 C-14.67 3.34 -14.34 2.68 -14 2 C-11.85546875 1.3671875 -11.85546875 1.3671875 -9.1875 0.875 C-8.31480469 0.70742188 -7.44210937 0.53984375 -6.54296875 0.3671875 C-4 0 -4 0 0 0 Z " fill="#FAAB56" transform="translate(265,563)"/>
<path d="M0 0 C1.19587778 3.58763335 0.68815865 5.03021679 -0.3125 8.625 C-0.70888672 10.09839844 -0.70888672 10.09839844 -1.11328125 11.6015625 C-2 14 -2 14 -4 15 C-4.72693904 16.97888961 -5.39816251 18.97954558 -6 21 C-7.10002926 18.21992606 -7.01833824 17.05625273 -6.07421875 14.16015625 C-5.61660156 13.13792969 -5.15898437 12.11570312 -4.6875 11.0625 C-4.23761719 10.04285156 -3.78773438 9.02320313 -3.32421875 7.97265625 C-2.88722656 6.99167969 -2.45023437 6.01070313 -2 5 C-1.3251696 3.33662206 -0.65550907 1.6710865 0 0 Z " fill="#19A4E0" transform="translate(307,351)"/>
<path d="M0 0 C0.47050781 0.40992188 0.94101562 0.81984375 1.42578125 1.2421875 C2.04839844 1.78101563 2.67101562 2.31984375 3.3125 2.875 C3.92738281 3.40867187 4.54226563 3.94234375 5.17578125 4.4921875 C7.13498212 6.1640447 7.13498212 6.1640447 10 8 C10 8.66 10 9.32 10 10 C5.93665699 9.14044667 3.50929583 8.49656344 0.5 5.5625 C0.005 4.716875 -0.49 3.87125 -1 3 C-0.67 2.01 -0.34 1.02 0 0 Z " fill="#49B9E9" transform="translate(782,297)"/>
<path d="M0 0 C0 0.99 0 1.98 0 3 C-1.98 3.99 -3.96 4.98 -6 6 C-5.01 7.32 -4.02 8.64 -3 10 C-5.97 9.505 -5.97 9.505 -9 9 C-9.33 7.35 -9.66 5.7 -10 4 C-9.36191406 3.79503906 -8.72382812 3.59007812 -8.06640625 3.37890625 C-7.24011719 3.10949219 -6.41382813 2.84007812 -5.5625 2.5625 C-4.73878906 2.29566406 -3.91507813 2.02882813 -3.06640625 1.75390625 C-1.03780412 1.17844506 -1.03780412 1.17844506 0 0 Z " fill="#67C8EE" transform="translate(824,276)"/>
<path d="M0 0 C0.66 0 1.32 0 2 0 C0.68 5.61 -0.64 11.22 -2 17 C-2.66 17 -3.32 17 -4 17 C-3.58411954 10.80481527 -2.39748106 5.73310689 0 0 Z " fill="#8BD8F5" transform="translate(773,261)"/>
<path d="M0 0 C1.48378488 4.45135463 -0.07566272 7.83318903 -2 12 C-4.1875 14.0625 -4.1875 14.0625 -6 15 C-4.36764706 3.57352941 -4.36764706 3.57352941 0 0 Z " fill="#F79848" transform="translate(97,423)"/>
<path d="M0 0 C1 3 1 3 0.00390625 5.48046875 C-0.47175781 6.37378906 -0.94742188 7.26710938 -1.4375 8.1875 C-1.91058594 9.08855469 -2.38367188 9.98960937 -2.87109375 10.91796875 C-3.24363281 11.60503906 -3.61617187 12.29210937 -4 13 C-4.33 13 -4.66 13 -5 13 C-5.28571429 5.57142857 -5.28571429 5.57142857 -3 2 C-2.01 2 -1.02 2 0 2 C0 1.34 0 0.68 0 0 Z " fill="#F68B34" transform="translate(155,292)"/>
<path d="M0 0 C1.875 0.625 1.875 0.625 4 2 C5.73961634 5.81058817 6.19298271 8.03483443 5 12 C4.15556432 10.75747321 3.3248542 9.5056114 2.5 8.25 C1.80390625 7.20585937 1.80390625 7.20585937 1.09375 6.140625 C0 4 0 4 0 0 Z " fill="#51BEE9" transform="translate(814,286)"/>
<path d="M0 0 C1.32 0.33 2.64 0.66 4 1 C4 1.99 4 2.98 4 4 C0.73086376 5.03115279 -1.86041348 4.9638984 -5.25 4.5625 C-6.14203125 4.46066406 -7.0340625 4.35882813 -7.953125 4.25390625 C-8.62859375 4.17011719 -9.3040625 4.08632813 -10 4 C-10 3.67 -10 3.34 -10 3 C-6.7 2.34 -3.4 1.68 0 1 C0 0.67 0 0.34 0 0 Z " fill="#2BABE2" transform="translate(813,311)"/>
<path d="M0 0 C0.66 0 1.32 0 2 0 C1.74462428 2.1060986 1.47014626 4.20988754 1.1875 6.3125 C1.03667969 7.48425781 0.88585937 8.65601563 0.73046875 9.86328125 C0.00135005 12.99420274 -0.49171464 14.09645193 -3 16 C-2.68954268 14.0830014 -2.37655329 12.16641277 -2.0625 10.25 C-1.88847656 9.18265625 -1.71445312 8.1153125 -1.53515625 7.015625 C-1.11295829 4.63652407 -0.62797116 2.33084789 0 0 Z " fill="#FBBF86" transform="translate(268,20)"/>
<path d="M0 0 C3 1 3 1 4.6875 3.6875 C6.03558623 7.08981286 6.25833766 9.38327271 6 13 C5.01 13.495 5.01 13.495 4 14 C3.87625 12.948125 3.7525 11.89625 3.625 10.8125 C3.08542821 7.52111209 2.48269326 4.96538652 1 2 C0.34 1.67 -0.32 1.34 -1 1 C-0.67 0.67 -0.34 0.34 0 0 Z " fill="#F8A351" transform="translate(90,560)"/>
<path d="M0 0 C1.05503586 3.42886654 1.43753611 6.42678844 1 10 C-1.5 12.875 -1.5 12.875 -4 15 C-4.33 14.01 -4.66 13.02 -5 12 C-4.34 12 -3.68 12 -3 12 C-2.86722656 11.38511719 -2.73445312 10.77023437 -2.59765625 10.13671875 C-2.42105469 9.32847656 -2.24445312 8.52023437 -2.0625 7.6875 C-1.88847656 6.88699219 -1.71445312 6.08648437 -1.53515625 5.26171875 C-1 3 -1 3 0 0 Z " fill="#69C7ED" transform="translate(563,449)"/>
<path d="M0 0 C1.95881942 3.27920881 2.05559492 3.76173604 1.125 7.75 C0.75375 8.8225 0.3825 9.895 0 11 C-0.66 11 -1.32 11 -2 11 C-2.33 11.99 -2.66 12.98 -3 14 C-4 12 -4 12 -3.22265625 9.1796875 C-2.83980469 8.08914063 -2.45695313 6.99859375 -2.0625 5.875 C-1.68222656 4.77929688 -1.30195312 3.68359375 -0.91015625 2.5546875 C-0.60980469 1.71164062 -0.30945313 0.86859375 0 0 Z " fill="#56BFEA" transform="translate(584,392)"/>
<path d="M0 0 C0.33 0 0.66 0 1 0 C1.83861979 5.36716665 -1.07929595 8.79627239 -4 13 C-4.66 12.01 -5.32 11.02 -6 10 C-5 8.33333333 -4 6.66666667 -3 5 C-2.46375 4.071875 -1.9275 3.14375 -1.375 2.1875 C-0.694375 1.1046875 -0.694375 1.1046875 0 0 Z " fill="#F79540" transform="translate(252,297)"/>
<path d="M0 0 C0.66 0 1.32 0 2 0 C0.23570801 4.97209562 -2.3939166 9.43438061 -5 14 C-6.27514492 10.17456525 -5.52740413 8.66576992 -4 5 C-2.4375 3.25 -2.4375 3.25 -1 2 C-0.67 1.34 -0.34 0.68 0 0 Z " fill="#FAB273" transform="translate(286,236)"/>
<path d="M0 0 C3.00617269 3.00617269 2.59585316 5.82381598 3 10 C3.33 10 3.66 10 4 10 C4 11.98 4 13.96 4 16 C3.34 16 2.68 16 2 16 C1.34 16.66 0.68 17.32 0 18 C0 12.06 0 6.12 0 0 Z " fill="#16A3DF" transform="translate(840,271)"/>
<path d="M0 0 C0.125 3.375 0.125 3.375 0 7 C-0.66 7.66 -1.32 8.32 -2 9 C-2.33 8.67 -2.66 8.34 -3 8 C-3.66 8.66 -4.32 9.32 -5 10 C-4.71872579 8.51882199 -4.42466268 7.04006751 -4.125 5.5625 C-3.96257812 4.73878906 -3.80015625 3.91507812 -3.6328125 3.06640625 C-3.42398438 2.38449219 -3.21515625 1.70257813 -3 1 C-1 0 -1 0 0 0 Z " fill="#F79D54" transform="translate(249,86)"/>
<path d="M0 0 C0 0.66 0 1.32 0 2 C-1.74784829 2.36463732 -3.49840502 2.7163078 -5.25 3.0625 C-6.71179688 3.35833984 -6.71179688 3.35833984 -8.203125 3.66015625 C-10.868119 3.98397535 -12.48871723 3.85503199 -15 3 C-13.906875 2.690625 -12.81375 2.38125 -11.6875 2.0625 C-4.14098837 -0.1119186 -4.14098837 -0.1119186 0 0 Z " fill="#F9AB65" transform="translate(231,569)"/>
<path d="M0 0 C2.04136395 -0.05451714 4.08315856 -0.09302485 6.125 -0.125 C7.83042969 -0.15980469 7.83042969 -0.15980469 9.5703125 -0.1953125 C13.05757767 0.00327891 15.7553862 0.7475199 19 2 C19 2.33 19 2.66 19 3 C12.4294834 3.24794402 6.43028541 2.32388229 0 1 C0 0.67 0 0.34 0 0 Z " fill="#F47911" transform="translate(238,547)"/>
<path d="M0 0 C0.66 0 1.32 0 2 0 C2.268125 0.639375 2.53625 1.27875 2.8125 1.9375 C3.88667752 4.33131686 3.88667752 4.33131686 7 5 C7.33 4.34 7.66 3.68 8 3 C8.66 3.33 9.32 3.66 10 4 C10 4.99 10 5.98 10 7 C7.25 7.3125 7.25 7.3125 4 7 C1.625 4.625 1.625 4.625 0 2 C0 1.34 0 0.68 0 0 Z " fill="#1CA4E0" transform="translate(819,294)"/>
<path d="M0 0 C0.99 0.33 1.98 0.66 3 1 C2.3125 3.4375 2.3125 3.4375 1 6 C-1.625 6.8125 -1.625 6.8125 -4 7 C-3.6875 4.625 -3.6875 4.625 -3 2 C-2.01 1.34 -1.02 0.68 0 0 Z " fill="#1FA7E0" transform="translate(777,263)"/>
<path d="M0 0 C0.33 0 0.66 0 1 0 C1.28571429 7.42857143 1.28571429 7.42857143 -1 11 C-1.99 11 -2.98 11 -4 11 C-3.52269162 9.5410574 -3.04308958 8.08286504 -2.5625 6.625 C-2.29566406 5.81289062 -2.02882812 5.00078125 -1.75390625 4.1640625 C-1 2 -1 2 0 0 Z " fill="#F7994A" transform="translate(243,96)"/>
<path d="M0 0 C2.9297008 2.82506863 5.50174717 5.78796065 8 9 C7.67 9.66 7.34 10.32 7 11 C0.42857143 6 0.42857143 6 -1 1 C-0.67 0.67 -0.34 0.34 0 0 Z " fill="#F8A661" transform="translate(284,38)"/>
<path d="M0 0 C1.12758089 3.38274266 0.81750262 4.76778223 0.0625 8.1875 C-0.13214844 9.08855469 -0.32679688 9.98960937 -0.52734375 10.91796875 C-0.68332031 11.60503906 -0.83929688 12.29210937 -1 13 C-1.99 13.33 -2.98 13.66 -4 14 C-3.36843005 8.94744036 -1.86540627 4.70406799 0 0 Z " fill="#72C8EE" transform="translate(275,334)"/>
<path d="M0 0 C0.66 0.33 1.32 0.66 2 1 C0.7874262 4.72433382 -0.50859979 8.37802806 -2 12 C-3.1171875 10.265625 -3.1171875 10.265625 -4 8 C-3.3203125 5.859375 -3.3203125 5.859375 -2.125 3.75 C-1.73570312 3.04359375 -1.34640625 2.3371875 -0.9453125 1.609375 C-0.63335937 1.07828125 -0.32140625 0.5471875 0 0 Z " fill="#F6903B" transform="translate(232,335)"/>
<path d="M0 0 C2.97 0.495 2.97 0.495 6 1 C6.33 2.32 6.66 3.64 7 5 C6.01 4.67 5.02 4.34 4 4 C3.67 5.32 3.34 6.64 3 8 C0 2.25 0 2.25 0 0 Z " fill="#44B6E7" transform="translate(775,292)"/>
<path d="M0 0 C1.37432457 3.81756824 0.67975039 7.07255329 0 11 C-0.99 11.33 -1.98 11.66 -3 12 C-2.49202991 7.6822542 -1.80317221 3.96697886 0 0 Z " fill="#58BEEB" transform="translate(545,499)"/>
<path d="M0 0 C0.33 0 0.66 0 1 0 C0.93993922 1.45947705 0.8511311 2.91779272 0.75 4.375 C0.70359375 5.18710938 0.6571875 5.99921875 0.609375 6.8359375 C0 9 0 9 -2.046875 10.2890625 C-3.01367188 10.64097656 -3.01367188 10.64097656 -4 11 C-3.52269162 9.5410574 -3.04308958 8.08286504 -2.5625 6.625 C-2.29566406 5.81289062 -2.02882812 5.00078125 -1.75390625 4.1640625 C-1 2 -1 2 0 0 Z " fill="#F79645" transform="translate(203,183)"/>
<path d="M0 0 C3.64354845 3.29654383 5.90447426 6.31237856 6.1875 11.3125 C6.125625 12.199375 6.06375 13.08625 6 14 C3.74402173 11.74402173 3.03425808 9.95396133 1.875 7 C1.52179688 6.113125 1.16859375 5.22625 0.8046875 4.3125 C0 2 0 2 0 0 Z " fill="#F47815" transform="translate(309,84)"/>
<path d="M0 0 C-0.33 0.66 -0.66 1.32 -1 2 C-2.32 2 -3.64 2 -5 2 C-5.33 2.66 -5.66 3.32 -6 4 C-7.65 3.67 -9.3 3.34 -11 3 C-11 2.34 -11 1.68 -11 1 C-7.26562152 0.12132271 -3.83225427 -0.08912219 0 0 Z " fill="#F47A16" transform="translate(177,577)"/>
<path d="M0 0 C0.66 0 1.32 0 2 0 C3.0326802 2.78823655 3.04509293 3.8677274 2.0625 6.75 C1.711875 7.4925 1.36125 8.235 1 9 C0.34 8.67 -0.32 8.34 -1 8 C-0.67 5.36 -0.34 2.72 0 0 Z " fill="#41B5E6" transform="translate(547,493)"/>
<path d="M0 0 C1.32 0.33 2.64 0.66 4 1 C2.68 4.3 1.36 7.6 0 11 C-0.66 9.68 -1.32 8.36 -2 7 C-1.125 4.9375 -1.125 4.9375 0 3 C0 2.01 0 1.02 0 0 Z " fill="#63C6ED" transform="translate(628,432)"/>
<path d="M0 0 C0.66 0 1.32 0 2 0 C3.0257259 4.41062136 3.03684712 6.92630576 1 11 C0.67 11 0.34 11 0 11 C0 7.37 0 3.74 0 0 Z " fill="#F79542" transform="translate(105,364)"/>
<path d="M0 0 C0.33 0 0.66 0 1 0 C1 3.63 1 7.26 1 11 C0.01 10.67 -0.98 10.34 -2 10 C-2 8.02 -2 6.04 -2 4 C-1.34 4 -0.68 4 0 4 C0 2.68 0 1.36 0 0 Z " fill="#44B3E8" transform="translate(771,274)"/>
<path d="M0 0 C4.455 1.98 4.455 1.98 9 4 C9 4.66 9 5.32 9 6 C6.36 5.34 3.72 4.68 1 4 C0.67 2.68 0.34 1.36 0 0 Z " fill="#F89B4C" transform="translate(68,152)"/>
<path d="M0 0 C0.66 0.66 1.32 1.32 2 2 C-1.63 2 -5.26 2 -9 2 C-7.01176662 -1.97646676 -3.67810698 -1.03741479 0 0 Z " fill="#F89848" transform="translate(44,581)"/>
<path d="M0 0 C0.33 0 0.66 0 1 0 C1 1.65 1 3.3 1 5 C-1.8125 6.125 -1.8125 6.125 -5 7 C-5.99 6.34 -6.98 5.68 -8 5 C-4.535 4.505 -4.535 4.505 -1 4 C-0.67 2.68 -0.34 1.36 0 0 Z " fill="#5EC3EA" transform="translate(819,271)"/>
<path d="M0 0 C4.10958767 1.45044271 7.43258745 3.51110752 11 6 C10.67 6.66 10.34 7.32 10 8 C8.32819726 7.05065487 6.66266064 6.09026687 5 5.125 C4.071875 4.59132812 3.14375 4.05765625 2.1875 3.5078125 C1.465625 3.01023438 0.74375 2.51265625 0 2 C0 1.34 0 0.68 0 0 Z " fill="#FAB86F" transform="translate(78,158)"/>
<path d="M0 0 C0.66 0.33 1.32 0.66 2 1 C0.58192622 5.47238653 -1.11304374 9.71146306 -3 14 C-4.25955231 10.22134307 -3.48087189 8.96588214 -2.0625 5.3125 C-1.68222656 4.31863281 -1.30195313 3.32476562 -0.91015625 2.30078125 C-0.60980469 1.54152344 -0.30945313 0.78226562 0 0 Z " fill="#F47814" transform="translate(256,66)"/>
<path d="M0 0 C2.76276177 0.52268466 5.3260876 1.10869587 8 2 C8 4.31 8 6.62 8 9 C7.34 8.01 6.68 7.02 6 6 C4.68733482 4.64631404 3.35432675 3.31200404 2 2 C1.34 1.34 0.68 0.68 0 0 Z " fill="#5AC1EB" transform="translate(813,262)"/>
<path d="M0 0 C2.86724686 0.57344937 3.8614515 0.8614515 6 3 C6.125 6.625 6.125 6.625 6 10 C5.7525 9.46375 5.505 8.9275 5.25 8.375 C3.70303025 5.43575748 1.86985631 2.74245592 0 0 Z " fill="#2DACE2" transform="translate(818,261)"/>
<path d="M0 0 C0.66 0.33 1.32 0.66 2 1 C-0.64 3.64 -3.28 6.28 -6 9 C-6.66 8.67 -7.32 8.34 -8 8 C-7.67 7.34 -7.34 6.68 -7 6 C-6.34 6 -5.68 6 -5 6 C-4.67 5.01 -4.34 4.02 -4 3 C-1.9375 1.3125 -1.9375 1.3125 0 0 Z " fill="#19A4DF" transform="translate(786,249)"/>
<path d="M0 0 C0 0.33 0 0.66 0 1 C-0.68707031 1.20496094 -1.37414062 1.40992188 -2.08203125 1.62109375 C-2.98308594 1.89050781 -3.88414062 2.15992188 -4.8125 2.4375 C-6.15248047 2.83775391 -6.15248047 2.83775391 -7.51953125 3.24609375 C-9.35473055 3.80387873 -11.18033726 4.39344575 -13 5 C-13 4.01 -13 3.02 -13 2 C-8.46298506 0.54815522 -4.81938524 -0.23509196 0 0 Z " fill="#52C2EB" transform="translate(804,248)"/>
<path d="M0 0 C1.25541557 3.76624671 0.37061958 5.37188934 -1 9 C-1.99 8.67 -2.98 8.34 -4 8 C-3.50168276 4.31245243 -2.89932357 2.39509338 0 0 Z " fill="#54BEE9" transform="translate(482,429)"/>
<path d="M0 0 C0.99 0.33 1.98 0.66 3 1 C1.77263971 5.15414253 0.672336 7.43688534 -2 11 C-1.34 7.37 -0.68 3.74 0 0 Z " fill="#F8A55F" transform="translate(121,333)"/>
<path d="M0 0 C1.48117801 0.28127421 2.95993249 0.57533732 4.4375 0.875 C5.67306641 1.11863281 5.67306641 1.11863281 6.93359375 1.3671875 C7.61550781 1.57601562 8.29742187 1.78484375 9 2 C9.33 2.66 9.66 3.32 10 4 C2.25 3.125 2.25 3.125 0 2 C0 1.34 0 0.68 0 0 Z " fill="#FBB476" transform="translate(240,544)"/>
<path d="M0 0 C0.66 0 1.32 0 2 0 C3.2077558 3.62326739 2.54311128 4.64146369 1 8 C0.34 7.67 -0.32 7.34 -1 7 C-0.67 4.69 -0.34 2.38 0 0 Z " fill="#46B8E8" transform="translate(327,375)"/>
<path d="M0 0 C1.25541557 3.76624671 0.37061958 5.37188934 -1 9 C-1.66 9 -2.32 9 -3 9 C-3.66 7.68 -4.32 6.36 -5 5 C-4.01 4.67 -3.02 4.34 -2 4 C-0.79117904 1.99983534 -0.79117904 1.99983534 0 0 Z " fill="#63C5ED" transform="translate(658,356)"/>
<path d="M0 0 C0.66 0 1.32 0 2 0 C1.55123384 1.64846769 1.09069512 3.29373455 0.625 4.9375 C0.36976563 5.85402344 0.11453125 6.77054687 -0.1484375 7.71484375 C-1 10 -1 10 -3 11 C-2.53199289 6.94393835 -2.12046792 3.53411321 0 0 Z " fill="#1EA6E0" transform="translate(600,352)"/>
<path d="M0 0 C2.20914 3.31371 2.22481553 4.3446021 2.125 8.1875 C2.10695313 9.08855469 2.08890625 9.98960937 2.0703125 10.91796875 C2.03550781 11.94857422 2.03550781 11.94857422 2 13 C-0.23302527 8.94409696 -0.62386798 5.58881061 -1 1 C-0.67 0.67 -0.34 0.34 0 0 Z " fill="#F8A864" transform="translate(96,266)"/>
<path d="M0 0 C0.66 0.33 1.32 0.66 2 1 C0.37660195 2.70884005 -1.29319053 4.37446717 -3 6 C-3.66 6 -4.32 6 -5 6 C-4.75 4.125 -4.75 4.125 -4 2 C-2.0625 0.6875 -2.0625 0.6875 0 0 Z " fill="#45B3ED" transform="translate(788,254)"/>
<path d="M0 0 C-3.8642073 2.5761382 -5.62817334 3.18466897 -10.25 2.5625 C-11.1575 2.376875 -12.065 2.19125 -13 2 C-13 1.67 -13 1.34 -13 1 C-8.60563789 0.14256349 -4.47427924 -0.08948558 0 0 Z " fill="#F47710" transform="translate(107,589)"/>
<path d="M0 0 C0 0.66 0 1.32 0 2 C-4.455 2.495 -4.455 2.495 -9 3 C-5.92807025 0.26939578 -4.09590633 -0.34132553 0 0 Z " fill="#FAAF62" transform="translate(242,567)"/>
<path d="M0 0 C0.66 0 1.32 0 2 0 C1.5020163 3.73487777 1.12508244 5.81237635 -1 9 C-1.09765625 2.84765625 -1.09765625 2.84765625 -1 1 C-0.67 0.67 -0.34 0.34 0 0 Z " fill="#5FC2EB" transform="translate(608,489)"/>
<path d="M0 0 C0.33 0 0.66 0 1 0 C1.36923077 5.53846154 1.36923077 5.53846154 -0.5 7.875 C-1.2425 8.431875 -1.2425 8.431875 -2 9 C-2.33 8.34 -2.66 7.68 -3 7 C-2.06421005 4.64018187 -1.06652192 2.30368736 0 0 Z " fill="#F89F59" transform="translate(115,375)"/>
<path d="M0 0 C3.375 -0.125 3.375 -0.125 7 0 C9 2 9 2 10 5 C5 3 5 3 0 1 C0 0.67 0 0.34 0 0 Z " fill="#5DC8EC" transform="translate(817,249)"/>
<path d="M0 0 C3 1 3 1 6 3 C3.69 3.66 1.38 4.32 -1 5 C-0.67 4.01 -0.34 3.02 0 2 C-0.66 1.67 -1.32 1.34 -2 1 C-1.34 0.67 -0.68 0.34 0 0 Z " fill="#1CA5E0" transform="translate(794,245)"/>
<path d="M0 0 C4.2742558 1.5830577 6.26531794 4.50568404 9 8 C5.56247993 6.4722133 2.81046312 4.49818944 0 2 C0 1.34 0 0.68 0 0 Z " fill="#FBB474" transform="translate(110,180)"/>
<path d="M0 0 C0 0.66 0 1.32 0 2 C-2.70879335 3.35439668 -5.00933268 3.06501451 -8 3 C-6.23110084 -0.53779831 -3.70375662 0 0 0 Z " fill="#FBBE75" transform="translate(265,563)"/>
<path d="M0 0 C-1.63412443 1.70840281 -2.86906094 2.93453047 -5 4 C-5 3.34 -5 2.68 -5 2 C-6.98 2 -8.96 2 -11 2 C-11 1.67 -11 1.34 -11 1 C-7.26562152 0.12132271 -3.83225427 -0.08912219 0 0 Z " fill="#F57F0D" transform="translate(254,564)"/>
<path d="M0 0 C0.33 0 0.66 0 1 0 C1.33 2.31 1.66 4.62 2 7 C0.02 7.99 0.02 7.99 -2 9 C-1.34 6.03 -0.68 3.06 0 0 Z " fill="#70C8ED" transform="translate(280,504)"/>
<path d="M0 0 C0.66 0.66 1.32 1.32 2 2 C-1.75 7.875 -1.75 7.875 -4 9 C-2.94124926 5.59687262 -1.99097846 2.98646769 0 0 Z " fill="#F47A14" transform="translate(280,244)"/>
<path d="M0 0 C0.66 0.33 1.32 0.66 2 1 C2 4.3 2 7.6 2 11 C1.67 11 1.34 11 1 11 C0.63743142 9.5437328 0.28520207 8.08488815 -0.0625 6.625 C-0.35833984 5.40683594 -0.35833984 5.40683594 -0.66015625 4.1640625 C-1 2 -1 2 0 0 Z " fill="#F68E3A" transform="translate(163,234)"/>
</svg>
